{"glyphs":{"0":{"ha":926,"x_min":103,"x_max":874,"o":"m 617 154 l 617 205 l 669 205 l 669 257 l 720 257 l 720 617 l 669 617 l 669 566 l 617 566 l 617 514 l 566 514 l 566 463 l 514 463 l 514 411 l 463 411 l 463 360 l 411 360 l 411 309 l 360 309 l 360 257 l 309 257 l 309 205 l 360 205 l 360 154 l 617 154 m 309 463 l 309 514 l 360 514 l 360 566 l 411 566 l 411 617 l 463 617 l 463 669 l 514 669 l 514 720 l 566 720 l 566 771 l 617 771 l 617 823 l 669 823 l 669 874 l 617 874 l 617 926 l 360 926 l 360 874 l 309 874 l 309 823 l 257 823 l 257 463 l 309 463 m 257 0 l 257 51 l 205 51 l 205 103 l 154 103 l 154 154 l 103 154 l 103 926 l 154 926 l 154 977 l 205 977 l 205 1029 l 257 1029 l 257 1080 l 720 1080 l 720 1029 l 771 1029 l 771 977 l 823 977 l 823 926 l 874 926 l 874 154 l 823 154 l 823 103 l 771 103 l 771 51 l 720 51 l 720 0 l 257 0 z "},"1":{"ha":926,"x_min":103,"x_max":874,"o":"m 103 0 l 103 154 l 411 154 l 411 926 l 360 926 l 360 874 l 309 874 l 309 823 l 257 823 l 257 771 l 103 771 l 103 926 l 154 926 l 154 977 l 205 977 l 205 1029 l 257 1029 l 257 1080 l 566 1080 l 566 154 l 874 154 l 874 0 l 103 0 z "},"2":{"ha":926,"x_min":103,"x_max":874,"o":"m 103 0 l 103 463 l 154 463 l 154 514 l 205 514 l 205 566 l 257 566 l 257 617 l 617 617 l 617 669 l 669 669 l 669 720 l 720 720 l 720 823 l 669 823 l 669 874 l 617 874 l 617 926 l 360 926 l 360 874 l 309 874 l 309 823 l 257 823 l 257 771 l 103 771 l 103 926 l 154 926 l 154 977 l 205 977 l 205 1029 l 257 1029 l 257 1080 l 720 1080 l 720 1029 l 771 1029 l 771 977 l 823 977 l 823 926 l 874 926 l 874 617 l 823 617 l 823 566 l 771 566 l 771 514 l 720 514 l 720 463 l 360 463 l 360 411 l 309 411 l 309 360 l 257 360 l 257 154 l 720 154 l 720 309 l 874 309 l 874 0 l 103 0 z "},"3":{"ha":926,"x_min":103,"x_max":874,"o":"m 257 0 l 257 51 l 205 51 l 205 103 l 154 103 l 154 154 l 103 154 l 103 309 l 257 309 l 257 257 l 309 257 l 309 205 l 360 205 l 360 154 l 617 154 l 617 205 l 669 205 l 669 257 l 720 257 l 720 360 l 669 360 l 669 411 l 617 411 l 617 463 l 411 463 l 411 617 l 617 617 l 617 669 l 669 669 l 669 720 l 720 720 l 720 823 l 669 823 l 669 874 l 617 874 l 617 926 l 360 926 l 360 874 l 309 874 l 309 823 l 257 823 l 257 771 l 103 771 l 103 926 l 154 926 l 154 977 l 205 977 l 205 1029 l 257 1029 l 257 1080 l 720 1080 l 720 1029 l 771 1029 l 771 977 l 823 977 l 823 926 l 874 926 l 874 617 l 823 617 l 823 566 l 771 566 l 771 514 l 823 514 l 823 463 l 874 463 l 874 154 l 823 154 l 823 103 l 771 103 l 771 51 l 720 51 l 720 0 l 257 0 z "},"4":{"ha":926,"x_min":103,"x_max":874,"o":"m 566 0 l 566 309 l 103 309 l 103 617 l 154 617 l 154 669 l 205 669 l 205 720 l 257 720 l 257 771 l 309 771 l 309 823 l 360 823 l 360 874 l 411 874 l 411 926 l 463 926 l 463 977 l 514 977 l 514 1029 l 566 1029 l 566 1080 l 720 1080 l 720 926 l 669 926 l 669 874 l 617 874 l 617 823 l 566 823 l 566 771 l 514 771 l 514 720 l 463 720 l 463 669 l 411 669 l 411 617 l 360 617 l 360 566 l 309 566 l 309 463 l 566 463 l 566 617 l 720 617 l 720 463 l 874 463 l 874 309 l 720 309 l 720 0 l 566 0 z "},"5":{"ha":926,"x_min":103,"x_max":874,"o":"m 257 0 l 257 51 l 205 51 l 205 103 l 154 103 l 154 154 l 103 154 l 103 309 l 257 309 l 257 257 l 309 257 l 309 205 l 360 205 l 360 154 l 617 154 l 617 205 l 669 205 l 669 257 l 720 257 l 720 360 l 669 360 l 669 411 l 617 411 l 617 463 l 103 463 l 103 1080 l 874 1080 l 874 926 l 257 926 l 257 617 l 720 617 l 720 566 l 771 566 l 771 514 l 823 514 l 823 463 l 874 463 l 874 154 l 823 154 l 823 103 l 771 103 l 771 51 l 720 51 l 720 0 l 257 0 z "},"6":{"ha":926,"x_min":103,"x_max":874,"o":"m 617 154 l 617 205 l 669 205 l 669 257 l 720 257 l 720 360 l 669 360 l 669 411 l 617 411 l 617 463 l 257 463 l 257 257 l 309 257 l 309 205 l 360 205 l 360 154 l 617 154 m 257 0 l 257 51 l 205 51 l 205 103 l 154 103 l 154 154 l 103 154 l 103 926 l 154 926 l 154 977 l 205 977 l 205 1029 l 257 1029 l 257 1080 l 720 1080 l 720 1029 l 771 1029 l 771 977 l 823 977 l 823 926 l 874 926 l 874 771 l 720 771 l 720 823 l 669 823 l 669 874 l 617 874 l 617 926 l 360 926 l 360 874 l 309 874 l 309 823 l 257 823 l 257 617 l 720 617 l 720 566 l 771 566 l 771 514 l 823 514 l 823 463 l 874 463 l 874 154 l 823 154 l 823 103 l 771 103 l 771 51 l 720 51 l 720 0 l 257 0 z "},"7":{"ha":926,"x_min":103,"x_max":874,"o":"m 411 0 l 411 463 l 463 463 l 463 514 l 514 514 l 514 566 l 566 566 l 566 617 l 617 617 l 617 669 l 669 669 l 669 720 l 720 720 l 720 926 l 257 926 l 257 771 l 103 771 l 103 1080 l 874 1080 l 874 617 l 823 617 l 823 566 l 771 566 l 771 514 l 720 514 l 720 463 l 669 463 l 669 411 l 617 411 l 617 360 l 566 360 l 566 0 l 411 0 z "},"8":{"ha":926,"x_min":103,"x_max":874,"o":"m 617 154 l 617 205 l 669 205 l 669 257 l 720 257 l 720 360 l 669 360 l 669 411 l 617 411 l 617 463 l 360 463 l 360 411 l 309 411 l 309 360 l 257 360 l 257 257 l 309 257 l 309 205 l 360 205 l 360 154 l 617 154 m 617 617 l 617 669 l 669 669 l 669 720 l 720 720 l 720 823 l 669 823 l 669 874 l 617 874 l 617 926 l 360 926 l 360 874 l 309 874 l 309 823 l 257 823 l 257 720 l 309 720 l 309 669 l 360 669 l 360 617 l 617 617 m 257 0 l 257 51 l 205 51 l 205 103 l 154 103 l 154 154 l 103 154 l 103 463 l 154 463 l 154 514 l 205 514 l 205 566 l 154 566 l 154 617 l 103 617 l 103 926 l 154 926 l 154 977 l 205 977 l 205 1029 l 257 1029 l 257 1080 l 720 1080 l 720 1029 l 771 1029 l 771 977 l 823 977 l 823 926 l 874 926 l 874 617 l 823 617 l 823 566 l 771 566 l 771 514 l 823 514 l 823 463 l 874 463 l 874 154 l 823 154 l 823 103 l 771 103 l 771 51 l 720 51 l 720 0 l 257 0 z "},"9":{"ha":926,"x_min":103,"x_max":874,"o":"m 720 617 l 720 823 l 669 823 l 669 874 l 617 874 l 617 926 l 360 926 l 360 874 l 309 874 l 309 823 l 257 823 l 257 720 l 309 720 l 309 669 l 360 669 l 360 617 l 720 617 m 257 0 l 257 51 l 205 51 l 205 103 l 154 103 l 154 154 l 103 154 l 103 309 l 257 309 l 257 257 l 309 257 l 309 205 l 360 205 l 360 154 l 617 154 l 617 205 l 669 205 l 669 257 l 720 257 l 720 463 l 257 463 l 257 514 l 205 514 l 205 566 l 154 566 l 154 617 l 103 617 l 103 926 l 154 926 l 154 977 l 205 977 l 205 1029 l 257 1029 l 257 1080 l 720 1080 l 720 1029 l 771 1029 l 771 977 l 823 977 l 823 926 l 874 926 l 874 154 l 823 154 l 823 103 l 771 103 l 771 51 l 720 51 l 720 0 l 257 0 z "}," ":{"ha":437,"x_min":0,"x_max":0,"o":""},"!":{"ha":309,"x_min":103,"x_max":257,"o":"m 103 0 l 103 154 l 257 154 l 257 0 l 103 0 m 103 309 l 103 1080 l 257 1080 l 257 309 l 103 309 z "},"\"":{"ha":617,"x_min":103,"x_max":566,"o":"m 103 771 l 103 1080 l 257 1080 l 257 771 l 103 771 m 411 771 l 411 1080 l 566 1080 l 566 771 l 411 771 z "},"#":{"ha":926,"x_min":103,"x_max":874,"o":"m 566 463 l 566 617 l 411 617 l 411 463 l 566 463 m 257 0 l 257 309 l 103 309 l 103 463 l 257 463 l 257 617 l 103 617 l 103 771 l 257 771 l 257 1080 l 411 1080 l 411 771 l 566 771 l 566 1080 l 720 1080 l 720 771 l 874 771 l 874 617 l 720 617 l 720 463 l 874 463 l 874 309 l 720 309 l 720 0 l 566 0 l 566 309 l 411 309 l 411 0 l 257 0 z "},"$":{"ha":926,"x_min":103,"x_max":874,"o":"m 617 154 l 617 205 l 669 205 l 669 257 l 720 257 l 720 360 l 669 360 l 669 411 l 617 411 l 617 463 l 566 463 l 566 154 l 617 154 m 411 617 l 411 926 l 360 926 l 360 874 l 309 874 l 309 823 l 257 823 l 257 720 l 309 720 l 309 669 l 360 669 l 360 617 l 411 617 m 411 -154 l 411 0 l 257 0 l 257 51 l 205 51 l 205 103 l 154 103 l 154 154 l 103 154 l 103 309 l 257 309 l 257 257 l 309 257 l 309 205 l 360 205 l 360 154 l 411 154 l 411 463 l 257 463 l 257 514 l 205 514 l 205 566 l 154 566 l 154 617 l 103 617 l 103 926 l 154 926 l 154 977 l 205 977 l 205 1029 l 257 1029 l 257 1080 l 411 1080 l 411 1234 l 566 1234 l 566 1080 l 720 1080 l 720 1029 l 771 1029 l 771 977 l 823 977 l 823 926 l 874 926 l 874 771 l 720 771 l 720 823 l 669 823 l 669 874 l 617 874 l 617 926 l 566 926 l 566 617 l 720 617 l 720 566 l 771 566 l 771 514 l 823 514 l 823 463 l 874 463 l 874 154 l 823 154 l 823 103 l 771 103 l 771 51 l 720 51 l 720 0 l 566 0 l 566 -154 l 411 -154 z "},"%":{"ha":926,"x_min":103,"x_max":874,"o":"m 771 103 l 771 205 l 669 205 l 669 103 l 771 103 m 617 0 l 617 51 l 566 51 l 566 257 l 617 257 l 617 309 l 823 309 l 823 257 l 874 257 l 874 51 l 823 51 l 823 0 l 617 0 m 309 874 l 309 977 l 205 977 l 205 874 l 309 874 m 154 771 l 154 823 l 103 823 l 103 1029 l 154 1029 l 154 1080 l 360 1080 l 360 1029 l 411 1029 l 411 823 l 360 823 l 360 771 l 154 771 m 103 0 l 103 309 l 154 309 l 154 360 l 205 360 l 205 411 l 257 411 l 257 463 l 309 463 l 309 514 l 360 514 l 360 566 l 411 566 l 411 617 l 463 617 l 463 669 l 514 669 l 514 720 l 566 720 l 566 771 l 617 771 l 617 823 l 669 823 l 669 874 l 720 874 l 720 1080 l 874 1080 l 874 771 l 823 771 l 823 720 l 771 720 l 771 669 l 720 669 l 720 617 l 669 617 l 669 566 l 617 566 l 617 514 l 566 514 l 566 463 l 514 463 l 514 411 l 463 411 l 463 360 l 411 360 l 411 309 l 360 309 l 360 257 l 309 257 l 309 205 l 257 205 l 257 0 l 103 0 z "},"&":{"ha":1029,"x_min":103,"x_max":977,"o":"m 257 0 l 257 51 l 205 51 l 205 103 l 154 103 l 154 154 l 103 154 l 103 463 l 154 463 l 154 514 l 205 514 l 205 566 l 154 566 l 154 617 l 103 617 l 103 926 l 154 926 l 154 977 l 205 977 l 205 1029 l 257 1029 l 257 1080 l 720 1080 l 720 1029 l 771 1029 l 771 977 l 823 977 l 823 926 l 874 926 l 874 771 l 720 771 l 720 823 l 669 823 l 669 874 l 617 874 l 617 926 l 360 926 l 360 874 l 309 874 l 309 823 l 257 823 l 257 720 l 309 720 l 309 669 l 360 669 l 360 617 l 566 617 l 566 463 l 360 463 l 360 411 l 309 411 l 309 360 l 257 360 l 257 257 l 309 257 l 309 205 l 360 205 l 360 154 l 566 154 l 566 205 l 617 205 l 617 257 l 669 257 l 669 463 l 977 463 l 977 309 l 823 309 l 823 154 l 771 154 l 771 103 l 720 103 l 720 51 l 669 51 l 669 0 l 257 0 z "},"'":{"ha":309,"x_min":103,"x_max":257,"o":"m 103 771 l 103 1080 l 257 1080 l 257 771 l 103 771 z "},"(":{"ha":617,"x_min":103,"x_max":566,"o":"m 411 0 l 411 51 l 360 51 l 360 103 l 309 103 l 309 154 l 257 154 l 257 205 l 205 205 l 205 257 l 154 257 l 154 309 l 103 309 l 103 771 l 154 771 l 154 823 l 205 823 l 205 874 l 257 874 l 257 926 l 309 926 l 309 977 l 360 977 l 360 1029 l 411 1029 l 411 1080 l 566 1080 l 566 926 l 514 926 l 514 874 l 463 874 l 463 823 l 411 823 l 411 771 l 360 771 l 360 720 l 309 720 l 309 669 l 257 669 l 257 411 l 309 411 l 309 360 l 360 360 l 360 309 l 411 309 l 411 257 l 463 257 l 463 205 l 514 205 l 514 154 l 566 154 l 566 0 l 411 0 z "},")":{"ha":617,"x_min":103,"x_max":566,"o":"m 103 0 l 103 154 l 154 154 l 154 205 l 205 205 l 205 257 l 257 257 l 257 309 l 309 309 l 309 360 l 360 360 l 360 411 l 411 411 l 411 669 l 360 669 l 360 720 l 309 720 l 309 771 l 257 771 l 257 823 l 205 823 l 205 874 l 154 874 l 154 926 l 103 926 l 103 1080 l 257 1080 l 257 1029 l 309 1029 l 309 977 l 360 977 l 360 926 l 411 926 l 411 874 l 463 874 l 463 823 l 514 823 l 514 771 l 566 771 l 566 309 l 514 309 l 514 257 l 463 257 l 463 205 l 411 205 l 411 154 l 360 154 l 360 103 l 309 103 l 309 51 l 257 51 l 257 0 l 103 0 z "},"*":{"ha":771,"x_min":103,"x_max":720,"o":"m 103 617 l 103 771 l 154 771 l 154 823 l 205 823 l 205 874 l 154 874 l 154 926 l 103 926 l 103 1080 l 257 1080 l 257 1029 l 309 1029 l 309 977 l 360 977 l 360 926 l 463 926 l 463 977 l 514 977 l 514 1029 l 566 1029 l 566 1080 l 720 1080 l 720 926 l 669 926 l 669 874 l 617 874 l 617 823 l 669 823 l 669 771 l 720 771 l 720 617 l 566 617 l 566 669 l 514 669 l 514 720 l 463 720 l 463 771 l 360 771 l 360 720 l 309 720 l 309 669 l 257 669 l 257 617 l 103 617 z "},"+":{"ha":926,"x_min":103,"x_max":874,"o":"m 411 154 l 411 463 l 103 463 l 103 617 l 411 617 l 411 926 l 566 926 l 566 617 l 874 617 l 874 463 l 566 463 l 566 154 l 411 154 z "},",":{"ha":309,"x_min":-51,"x_max":257,"o":"m -51 -309 l -51 -154 l 0 -154 l 0 -103 l 51 -103 l 51 -51 l 103 -51 l 103 154 l 257 154 l 257 -154 l 205 -154 l 205 -205 l 154 -205 l 154 -257 l 103 -257 l 103 -309 l -51 -309 z "},"-":{"ha":771,"x_min":103,"x_max":720,"o":"m 103 463 l 103 617 l 720 617 l 720 463 l 103 463 z "},".":{"ha":309,"x_min":103,"x_max":257,"o":"m 103 0 l 103 154 l 257 154 l 257 0 l 103 0 z "},"/":{"ha":926,"x_min":103,"x_max":874,"o":"m 103 0 l 103 309 l 154 309 l 154 360 l 205 360 l 205 411 l 257 411 l 257 463 l 309 463 l 309 514 l 360 514 l 360 566 l 411 566 l 411 617 l 463 617 l 463 669 l 514 669 l 514 720 l 566 720 l 566 771 l 617 771 l 617 823 l 669 823 l 669 874 l 720 874 l 720 1080 l 874 1080 l 874 771 l 823 771 l 823 720 l 771 720 l 771 669 l 720 669 l 720 617 l 669 617 l 669 566 l 617 566 l 617 514 l 566 514 l 566 463 l 514 463 l 514 411 l 463 411 l 463 360 l 411 360 l 411 309 l 360 309 l 360 257 l 309 257 l 309 205 l 257 205 l 257 0 l 103 0 z "},":":{"ha":309,"x_min":103,"x_max":257,"o":"m 103 0 l 103 154 l 257 154 l 257 0 l 103 0 m 103 617 l 103 771 l 257 771 l 257 617 l 103 617 z "},";":{"ha":309,"x_min":-51,"x_max":257,"o":"m -51 -309 l -51 -154 l 0 -154 l 0 -103 l 51 -103 l 51 -51 l 103 -51 l 103 154 l 257 154 l 257 -154 l 205 -154 l 205 -205 l 154 -205 l 154 -257 l 103 -257 l 103 -309 l -51 -309 m 103 617 l 103 771 l 257 771 l 257 617 l 103 617 z "},"<":{"ha":771,"x_min":103,"x_max":720,"o":"m 566 0 l 566 51 l 514 51 l 514 103 l 463 103 l 463 154 l 411 154 l 411 205 l 360 205 l 360 257 l 309 257 l 309 309 l 257 309 l 257 360 l 205 360 l 205 411 l 154 411 l 154 463 l 103 463 l 103 617 l 154 617 l 154 669 l 205 669 l 205 720 l 257 720 l 257 771 l 309 771 l 309 823 l 360 823 l 360 874 l 411 874 l 411 926 l 463 926 l 463 977 l 514 977 l 514 1029 l 566 1029 l 566 1080 l 720 1080 l 720 926 l 669 926 l 669 874 l 617 874 l 617 823 l 566 823 l 566 771 l 514 771 l 514 720 l 463 720 l 463 669 l 411 669 l 411 617 l 360 617 l 360 566 l 309 566 l 309 514 l 360 514 l 360 463 l 411 463 l 411 411 l 463 411 l 463 360 l 514 360 l 514 309 l 566 309 l 566 257 l 617 257 l 617 205 l 669 205 l 669 154 l 720 154 l 720 0 l 566 0 z "},"=":{"ha":926,"x_min":103,"x_max":874,"o":"m 103 309 l 103 463 l 874 463 l 874 309 l 103 309 m 103 617 l 103 771 l 874 771 l 874 617 l 103 617 z "},">":{"ha":771,"x_min":103,"x_max":720,"o":"m 103 0 l 103 154 l 154 154 l 154 205 l 205 205 l 205 257 l 257 257 l 257 309 l 309 309 l 309 360 l 360 360 l 360 411 l 411 411 l 411 463 l 463 463 l 463 514 l 514 514 l 514 566 l 463 566 l 463 617 l 411 617 l 411 669 l 360 669 l 360 720 l 309 720 l 309 771 l 257 771 l 257 823 l 205 823 l 205 874 l 154 874 l 154 926 l 103 926 l 103 1080 l 257 1080 l 257 1029 l 309 1029 l 309 977 l 360 977 l 360 926 l 411 926 l 411 874 l 463 874 l 463 823 l 514 823 l 514 771 l 566 771 l 566 720 l 617 720 l 617 669 l 669 669 l 669 617 l 720 617 l 720 463 l 669 463 l 669 411 l 617 411 l 617 360 l 566 360 l 566 309 l 514 309 l 514 257 l 463 257 l 463 205 l 411 205 l 411 154 l 360 154 l 360 103 l 309 103 l 309 51 l 257 51 l 257 0 l 103 0 z "},"?":{"ha":926,"x_min":103,"x_max":874,"o":"m 411 0 l 411 154 l 566 154 l 566 0 l 411 0 m 411 309 l 411 463 l 463 463 l 463 514 l 514 514 l 514 566 l 566 566 l 566 617 l 617 617 l 617 669 l 669 669 l 669 720 l 720 720 l 720 823 l 669 823 l 669 874 l 617 874 l 617 926 l 360 926 l 360 874 l 309 874 l 309 823 l 257 823 l 257 771 l 103 771 l 103 926 l 154 926 l 154 977 l 205 977 l 205 1029 l 257 1029 l 257 1080 l 720 1080 l 720 1029 l 771 1029 l 771 977 l 823 977 l 823 926 l 874 926 l 874 617 l 823 617 l 823 566 l 771 566 l 771 514 l 720 514 l 720 463 l 669 463 l 669 411 l 617 411 l 617 360 l 566 360 l 566 309 l 411 309 z "},"@":{"ha":1080,"x_min":103,"x_max":1029,"o":"m 720 463 l 720 617 l 566 617 l 566 463 l 720 463 m 257 0 l 257 51 l 205 51 l 205 103 l 154 103 l 154 154 l 103 154 l 103 926 l 154 926 l 154 977 l 205 977 l 205 1029 l 257 1029 l 257 1080 l 874 1080 l 874 926 l 257 926 l 257 154 l 874 154 l 874 309 l 463 309 l 463 360 l 411 360 l 411 720 l 463 720 l 463 771 l 823 771 l 823 720 l 874 720 l 874 566 l 926 566 l 926 514 l 977 514 l 977 463 l 1029 463 l 1029 154 l 977 154 l 977 103 l 926 103 l 926 51 l 874 51 l 874 0 l 257 0 z "},"A":{"ha":926,"x_min":103,"x_max":874,"o":"m 720 617 l 720 823 l 669 823 l 669 874 l 617 874 l 617 926 l 360 926 l 360 874 l 309 874 l 309 823 l 257 823 l 257 617 l 720 617 m 103 0 l 103 926 l 154 926 l 154 977 l 205 977 l 205 1029 l 257 1029 l 257 1080 l 720 1080 l 720 1029 l 771 1029 l 771 977 l 823 977 l 823 926 l 874 926 l 874 0 l 720 0 l 720 463 l 257 463 l 257 0 l 103 0 z "},"B":{"ha":926,"x_min":103,"x_max":874,"o":"m 617 154 l 617 205 l 669 205 l 669 257 l 720 257 l 720 360 l 669 360 l 669 411 l 617 411 l 617 463 l 257 463 l 257 154 l 617 154 m 617 617 l 617 669 l 669 669 l 669 720 l 720 720 l 720 823 l 669 823 l 669 874 l 617 874 l 617 926 l 257 926 l 257 617 l 617 617 m 103 0 l 103 1080 l 720 1080 l 720 1029 l 771 1029 l 771 977 l 823 977 l 823 926 l 874 926 l 874 617 l 823 617 l 823 566 l 771 566 l 771 514 l 823 514 l 823 463 l 874 463 l 874 154 l 823 154 l 823 103 l 771 103 l 771 51 l 720 51 l 720 0 l 103 0 z "},"C":{"ha":926,"x_min":103,"x_max":874,"o":"m 257 0 l 257 51 l 205 51 l 205 103 l 154 103 l 154 154 l 103 154 l 103 926 l 154 926 l 154 977 l 205 977 l 205 1029 l 257 1029 l 257 1080 l 720 1080 l 720 1029 l 771 1029 l 771 977 l 823 977 l 823 926 l 874 926 l 874 771 l 720 771 l 720 823 l 669 823 l 669 874 l 617 874 l 617 926 l 360 926 l 360 874 l 309 874 l 309 823 l 257 823 l 257 257 l 309 257 l 309 205 l 360 205 l 360 154 l 617 154 l 617 205 l 669 205 l 669 257 l 720 257 l 720 309 l 874 309 l 874 154 l 823 154 l 823 103 l 771 103 l 771 51 l 720 51 l 720 0 l 257 0 z "},"D":{"ha":926,"x_min":103,"x_max":874,"o":"m 617 154 l 617 205 l 669 205 l 669 257 l 720 257 l 720 823 l 669 823 l 669 874 l 617 874 l 617 926 l 257 926 l 257 154 l 617 154 m 103 0 l 103 1080 l 720 1080 l 720 1029 l 771 1029 l 771 977 l 823 977 l 823 926 l 874 926 l 874 154 l 823 154 l 823 103 l 771 103 l 771 51 l 720 51 l 720 0 l 103 0 z "},"E":{"ha":926,"x_min":103,"x_max":874,"o":"m 257 0 l 257 51 l 205 51 l 205 103 l 154 103 l 154 154 l 103 154 l 103 926 l 154 926 l 154 977 l 205 977 l 205 1029 l 257 1029 l 257 1080 l 874 1080 l 874 926 l 360 926 l 360 874 l 309 874 l 309 823 l 257 823 l 257 617 l 720 617 l 720 463 l 257 463 l 257 257 l 309 257 l 309 205 l 360 205 l 360 154 l 874 154 l 874 0 l 257 0 z "},"F":{"ha":926,"x_min":103,"x_max":874,"o":"m 103 0 l 103 926 l 154 926 l 154 977 l 205 977 l 205 1029 l 257 1029 l 257 1080 l 874 1080 l 874 926 l 360 926 l 360 874 l 309 874 l 309 823 l 257 823 l 257 617 l 720 617 l 720 463 l 257 463 l 257 0 l 103 0 z "},"G":{"ha":926,"x_min":103,"x_max":874,"o":"m 257 0 l 257 51 l 205 51 l 205 103 l 154 103 l 154 154 l 103 154 l 103 926 l 154 926 l 154 977 l 205 977 l 205 1029 l 257 1029 l 257 1080 l 720 1080 l 720 1029 l 771 1029 l 771 977 l 823 977 l 823 926 l 874 926 l 874 771 l 720 771 l 720 823 l 669 823 l 669 874 l 617 874 l 617 926 l 360 926 l 360 874 l 309 874 l 309 823 l 257 823 l 257 257 l 309 257 l 309 205 l 360 205 l 360 154 l 617 154 l 617 205 l 669 205 l 669 257 l 720 257 l 720 463 l 566 463 l 566 617 l 874 617 l 874 154 l 823 154 l 823 103 l 771 103 l 771 51 l 720 51 l 720 0 l 257 0 z "},"H":{"ha":926,"x_min":103,"x_max":874,"o":"m 103 0 l 103 1080 l 257 1080 l 257 617 l 720 617 l 720 1080 l 874 1080 l 874 0 l 720 0 l 720 463 l 257 463 l 257 0 l 103 0 z "},"I":{"ha":926,"x_min":103,"x_max":874,"o":"m 103 0 l 103 154 l 411 154 l 411 926 l 103 926 l 103 1080 l 874 1080 l 874 926 l 566 926 l 566 154 l 874 154 l 874 0 l 103 0 z "},"J":{"ha":926,"x_min":103,"x_max":874,"o":"m 257 0 l 257 51 l 205 51 l 205 103 l 154 103 l 154 154 l 103 154 l 103 309 l 257 309 l 257 257 l 309 257 l 309 205 l 360 205 l 360 154 l 617 154 l 617 205 l 669 205 l 669 257 l 720 257 l 720 926 l 257 926 l 257 1080 l 874 1080 l 874 154 l 823 154 l 823 103 l 771 103 l 771 51 l 720 51 l 720 0 l 257 0 z "},"K":{"ha":926,"x_min":103,"x_max":874,"o":"m 103 0 l 103 1080 l 257 1080 l 257 617 l 309 617 l 309 669 l 360 669 l 360 720 l 411 720 l 411 771 l 463 771 l 463 823 l 514 823 l 514 874 l 566 874 l 566 926 l 617 926 l 617 977 l 669 977 l 669 1029 l 720 1029 l 720 1080 l 874 1080 l 874 926 l 823 926 l 823 874 l 771 874 l 771 823 l 720 823 l 720 771 l 669 771 l 669 720 l 617 720 l 617 669 l 566 669 l 566 617 l 514 617 l 514 566 l 463 566 l 463 514 l 514 514 l 514 463 l 566 463 l 566 411 l 617 411 l 617 360 l 669 360 l 669 309 l 720 309 l 720 257 l 771 257 l 771 205 l 823 205 l 823 154 l 874 154 l 874 0 l 720 0 l 720 51 l 669 51 l 669 103 l 617 103 l 617 154 l 566 154 l 566 205 l 514 205 l 514 257 l 463 257 l 463 309 l 411 309 l 411 360 l 360 360 l 360 411 l 309 411 l 309 463 l 257 463 l 257 0 l 103 0 z "},"L":{"ha":926,"x_min":103,"x_max":874,"o":"m 103 0 l 103 1080 l 257 1080 l 257 154 l 874 154 l 874 0 l 103 0 z "},"M":{"ha":926,"x_min":103,"x_max":874,"o":"m 103 0 l 103 1080 l 257 1080 l 257 1029 l 309 1029 l 309 977 l 360 977 l 360 926 l 411 926 l 411 874 l 463 874 l 463 823 l 514 823 l 514 874 l 566 874 l 566 926 l 617 926 l 617 977 l 669 977 l 669 1029 l 720 1029 l 720 1080 l 874 1080 l 874 0 l 720 0 l 720 771 l 669 771 l 669 720 l 617 720 l 617 669 l 566 669 l 566 617 l 411 617 l 411 669 l 360 669 l 360 720 l 309 720 l 309 771 l 257 771 l 257 0 l 103 0 z "},"N":{"ha":926,"x_min":103,"x_max":874,"o":"m 103 0 l 103 1080 l 257 1080 l 257 1029 l 309 1029 l 309 977 l 360 977 l 360 926 l 411 926 l 411 874 l 463 874 l 463 823 l 514 823 l 514 771 l 566 771 l 566 720 l 617 720 l 617 669 l 669 669 l 669 617 l 720 617 l 720 1080 l 874 1080 l 874 0 l 720 0 l 720 360 l 669 360 l 669 411 l 617 411 l 617 463 l 566 463 l 566 514 l 514 514 l 514 566 l 463 566 l 463 617 l 411 617 l 411 669 l 360 669 l 360 720 l 309 720 l 309 771 l 257 771 l 257 0 l 103 0 z "},"O":{"ha":926,"x_min":103,"x_max":874,"o":"m 617 154 l 617 205 l 669 205 l 669 257 l 720 257 l 720 823 l 669 823 l 669 874 l 617 874 l 617 926 l 360 926 l 360 874 l 309 874 l 309 823 l 257 823 l 257 257 l 309 257 l 309 205 l 360 205 l 360 154 l 617 154 m 257 0 l 257 51 l 205 51 l 205 103 l 154 103 l 154 154 l 103 154 l 103 926 l 154 926 l 154 977 l 205 977 l 205 1029 l 257 1029 l 257 1080 l 720 1080 l 720 1029 l 771 1029 l 771 977 l 823 977 l 823 926 l 874 926 l 874 154 l 823 154 l 823 103 l 771 103 l 771 51 l 720 51 l 720 0 l 257 0 z "},"P":{"ha":926,"x_min":103,"x_max":874,"o":"m 617 617 l 617 669 l 669 669 l 669 720 l 720 720 l 720 823 l 669 823 l 669 874 l 617 874 l 617 926 l 257 926 l 257 617 l 617 617 m 103 0 l 103 1080 l 720 1080 l 720 1029 l 771 1029 l 771 977 l 823 977 l 823 926 l 874 926 l 874 617 l 823 617 l 823 566 l 771 566 l 771 514 l 720 514 l 720 463 l 257 463 l 257 0 l 103 0 z "},"Q":{"ha":926,"x_min":103,"x_max":874,"o":"m 566 154 l 566 205 l 514 205 l 514 257 l 463 257 l 463 309 l 411 309 l 411 463 l 566 463 l 566 411 l 617 411 l 617 360 l 669 360 l 669 309 l 720 309 l 720 823 l 669 823 l 669 874 l 617 874 l 617 926 l 360 926 l 360 874 l 309 874 l 309 823 l 257 823 l 257 257 l 309 257 l 309 205 l 360 205 l 360 154 l 566 154 m 257 0 l 257 51 l 205 51 l 205 103 l 154 103 l 154 154 l 103 154 l 103 926 l 154 926 l 154 977 l 205 977 l 205 1029 l 257 1029 l 257 1080 l 720 1080 l 720 1029 l 771 1029 l 771 977 l 823 977 l 823 926 l 874 926 l 874 309 l 823 309 l 823 257 l 771 257 l 771 205 l 823 205 l 823 154 l 874 154 l 874 0 l 720 0 l 720 51 l 669 51 l 669 103 l 617 103 l 617 51 l 566 51 l 566 0 l 257 0 z "},"R":{"ha":926,"x_min":103,"x_max":874,"o":"m 617 617 l 617 669 l 669 669 l 669 720 l 720 720 l 720 823 l 669 823 l 669 874 l 617 874 l 617 926 l 257 926 l 257 617 l 617 617 m 103 0 l 103 1080 l 720 1080 l 720 1029 l 771 1029 l 771 977 l 823 977 l 823 926 l 874 926 l 874 617 l 823 617 l 823 566 l 771 566 l 771 514 l 720 514 l 720 463 l 566 463 l 566 411 l 617 411 l 617 360 l 669 360 l 669 309 l 720 309 l 720 257 l 771 257 l 771 205 l 823 205 l 823 154 l 874 154 l 874 0 l 720 0 l 720 51 l 669 51 l 669 103 l 617 103 l 617 154 l 566 154 l 566 205 l 514 205 l 514 257 l 463 257 l 463 309 l 411 309 l 411 360 l 360 360 l 360 411 l 309 411 l 309 463 l 257 463 l 257 0 l 103 0 z "},"S":{"ha":926,"x_min":103,"x_max":874,"o":"m 257 0 l 257 51 l 205 51 l 205 103 l 154 103 l 154 154 l 103 154 l 103 309 l 257 309 l 257 257 l 309 257 l 309 205 l 360 205 l 360 154 l 617 154 l 617 205 l 669 205 l 669 257 l 720 257 l 720 360 l 669 360 l 669 411 l 617 411 l 617 463 l 257 463 l 257 514 l 205 514 l 205 566 l 154 566 l 154 617 l 103 617 l 103 926 l 154 926 l 154 977 l 205 977 l 205 1029 l 257 1029 l 257 1080 l 720 1080 l 720 1029 l 771 1029 l 771 977 l 823 977 l 823 926 l 874 926 l 874 771 l 720 771 l 720 823 l 669 823 l 669 874 l 617 874 l 617 926 l 360 926 l 360 874 l 309 874 l 309 823 l 257 823 l 257 720 l 309 720 l 309 669 l 360 669 l 360 617 l 720 617 l 720 566 l 771 566 l 771 514 l 823 514 l 823 463 l 874 463 l 874 154 l 823 154 l 823 103 l 771 103 l 771 51 l 720 51 l 720 0 l 257 0 z "},"T":{"ha":926,"x_min":103,"x_max":874,"o":"m 411 0 l 411 926 l 103 926 l 103 1080 l 874 1080 l 874 926 l 566 926 l 566 0 l 411 0 z "},"U":{"ha":926,"x_min":103,"x_max":874,"o":"m 257 0 l 257 51 l 205 51 l 205 103 l 154 103 l 154 154 l 103 154 l 103 1080 l 257 1080 l 257 257 l 309 257 l 309 205 l 360 205 l 360 154 l 617 154 l 617 205 l 669 205 l 669 257 l 720 257 l 720 1080 l 874 1080 l 874 154 l 823 154 l 823 103 l 771 103 l 771 51 l 720 51 l 720 0 l 257 0 z "},"V":{"ha":926,"x_min":103,"x_max":874,"o":"m 411 0 l 411 205 l 360 205 l 360 257 l 309 257 l 309 309 l 257 309 l 257 514 l 205 514 l 205 566 l 154 566 l 154 617 l 103 617 l 103 1080 l 257 1080 l 257 720 l 309 720 l 309 669 l 360 669 l 360 617 l 411 617 l 411 411 l 463 411 l 463 360 l 514 360 l 514 411 l 566 411 l 566 617 l 617 617 l 617 669 l 669 669 l 669 720 l 720 720 l 720 1080 l 874 1080 l 874 617 l 823 617 l 823 566 l 771 566 l 771 514 l 720 514 l 720 309 l 669 309 l 669 257 l 617 257 l 617 205 l 566 205 l 566 0 l 411 0 z "},"W":{"ha":926,"x_min":103,"x_max":874,"o":"m 103 0 l 103 1080 l 257 1080 l 257 309 l 309 309 l 309 360 l 360 360 l 360 411 l 411 411 l 411 463 l 566 463 l 566 411 l 617 411 l 617 360 l 669 360 l 669 309 l 720 309 l 720 1080 l 874 1080 l 874 0 l 720 0 l 720 51 l 669 51 l 669 103 l 617 103 l 617 154 l 566 154 l 566 205 l 514 205 l 514 257 l 463 257 l 463 205 l 411 205 l 411 154 l 360 154 l 360 103 l 309 103 l 309 51 l 257 51 l 257 0 l 103 0 z "},"X":{"ha":926,"x_min":103,"x_max":874,"o":"m 103 0 l 103 463 l 154 463 l 154 514 l 205 514 l 205 566 l 257 566 l 257 617 l 309 617 l 309 669 l 360 669 l 360 720 l 309 720 l 309 771 l 257 771 l 257 823 l 205 823 l 205 874 l 154 874 l 154 926 l 103 926 l 103 1080 l 257 1080 l 257 1029 l 309 1029 l 309 977 l 360 977 l 360 926 l 411 926 l 411 874 l 463 874 l 463 823 l 514 823 l 514 874 l 566 874 l 566 926 l 617 926 l 617 977 l 669 977 l 669 1029 l 720 1029 l 720 1080 l 874 1080 l 874 926 l 823 926 l 823 874 l 771 874 l 771 823 l 720 823 l 720 771 l 669 771 l 669 720 l 617 720 l 617 669 l 669 669 l 669 617 l 720 617 l 720 566 l 771 566 l 771 514 l 823 514 l 823 463 l 874 463 l 874 0 l 720 0 l 720 360 l 669 360 l 669 411 l 617 411 l 617 463 l 566 463 l 566 514 l 514 514 l 514 566 l 463 566 l 463 514 l 411 514 l 411 463 l 360 463 l 360 411 l 309 411 l 309 360 l 257 360 l 257 0 l 103 0 z "},"Y":{"ha":926,"x_min":103,"x_max":874,"o":"m 411 0 l 411 514 l 360 514 l 360 566 l 309 566 l 309 617 l 257 617 l 257 669 l 205 669 l 205 720 l 154 720 l 154 771 l 103 771 l 103 1080 l 257 1080 l 257 874 l 309 874 l 309 823 l 360 823 l 360 771 l 411 771 l 411 720 l 463 720 l 463 669 l 514 669 l 514 720 l 566 720 l 566 771 l 617 771 l 617 823 l 669 823 l 669 874 l 720 874 l 720 1080 l 874 1080 l 874 771 l 823 771 l 823 720 l 771 720 l 771 669 l 720 669 l 720 617 l 669 617 l 669 566 l 617 566 l 617 514 l 566 514 l 566 0 l 411 0 z "},"Z":{"ha":926,"x_min":103,"x_max":874,"o":"m 103 0 l 103 309 l 154 309 l 154 360 l 205 360 l 205 411 l 257 411 l 257 463 l 309 463 l 309 514 l 360 514 l 360 566 l 411 566 l 411 617 l 463 617 l 463 669 l 514 669 l 514 720 l 566 720 l 566 771 l 617 771 l 617 823 l 669 823 l 669 926 l 103 926 l 103 1080 l 874 1080 l 874 771 l 823 771 l 823 720 l 771 720 l 771 669 l 720 669 l 720 617 l 669 617 l 669 566 l 617 566 l 617 514 l 566 514 l 566 463 l 514 463 l 514 411 l 463 411 l 463 360 l 411 360 l 411 309 l 360 309 l 360 257 l 309 257 l 309 154 l 874 154 l 874 0 l 103 0 z "},"[":{"ha":617,"x_min":103,"x_max":566,"o":"m 103 0 l 103 1080 l 566 1080 l 566 926 l 257 926 l 257 154 l 566 154 l 566 0 l 103 0 z "},"\\":{"ha":926,"x_min":103,"x_max":874,"o":"m 720 0 l 720 205 l 669 205 l 669 257 l 617 257 l 617 309 l 566 309 l 566 360 l 514 360 l 514 411 l 463 411 l 463 463 l 411 463 l 411 514 l 360 514 l 360 566 l 309 566 l 309 617 l 257 617 l 257 669 l 205 669 l 205 720 l 154 720 l 154 771 l 103 771 l 103 1080 l 257 1080 l 257 874 l 309 874 l 309 823 l 360 823 l 360 771 l 411 771 l 411 720 l 463 720 l 463 669 l 514 669 l 514 617 l 566 617 l 566 566 l 617 566 l 617 514 l 669 514 l 669 463 l 720 463 l 720 411 l 771 411 l 771 360 l 823 360 l 823 309 l 874 309 l 874 0 l 720 0 z "},"]":{"ha":617,"x_min":103,"x_max":566,"o":"m 103 0 l 103 154 l 411 154 l 411 926 l 103 926 l 103 1080 l 566 1080 l 566 0 l 103 0 z "},"^":{"ha":926,"x_min":103,"x_max":874,"o":"m 103 617 l 103 771 l 154 771 l 154 823 l 205 823 l 205 874 l 257 874 l 257 926 l 309 926 l 309 977 l 360 977 l 360 1029 l 411 1029 l 411 1080 l 566 1080 l 566 1029 l 617 1029 l 617 977 l 669 977 l 669 926 l 720 926 l 720 874 l 771 874 l 771 823 l 823 823 l 823 771 l 874 771 l 874 617 l 720 617 l 720 669 l 669 669 l 669 720 l 617 720 l 617 771 l 566 771 l 566 823 l 514 823 l 514 874 l 463 874 l 463 823 l 411 823 l 411 771 l 360 771 l 360 720 l 309 720 l 309 669 l 257 669 l 257 617 l 103 617 z "},"_":{"ha":926,"x_min":103,"x_max":874,"o":"m 103 0 l 103 154 l 874 154 l 874 0 l 103 0 z "},"`":{"ha":463,"x_min":103,"x_max":411,"o":"m 257 771 l 257 823 l 205 823 l 205 874 l 154 874 l 154 926 l 103 926 l 103 1080 l 257 1080 l 257 1029 l 309 1029 l 309 977 l 360 977 l 360 926 l 411 926 l 411 771 l 257 771 z "},"a":{"ha":926,"x_min":103,"x_max":874,"o":"m 720 154 l 720 309 l 360 309 l 360 257 l 309 257 l 309 205 l 360 205 l 360 154 l 720 154 m 257 0 l 257 51 l 205 51 l 205 103 l 154 103 l 154 154 l 103 154 l 103 309 l 154 309 l 154 360 l 205 360 l 205 411 l 257 411 l 257 463 l 720 463 l 720 514 l 669 514 l 669 566 l 617 566 l 617 617 l 257 617 l 257 771 l 720 771 l 720 720 l 771 720 l 771 669 l 823 669 l 823 617 l 874 617 l 874 0 l 257 0 z "},"b":{"ha":926,"x_min":103,"x_max":874,"o":"m 617 154 l 617 205 l 669 205 l 669 257 l 720 257 l 720 514 l 669 514 l 669 566 l 617 566 l 617 617 l 257 617 l 257 411 l 309 411 l 309 360 l 360 360 l 360 309 l 411 309 l 411 257 l 463 257 l 463 205 l 514 205 l 514 154 l 617 154 m 103 0 l 103 1080 l 257 1080 l 257 771 l 720 771 l 720 720 l 771 720 l 771 669 l 823 669 l 823 617 l 874 617 l 874 154 l 823 154 l 823 103 l 771 103 l 771 51 l 720 51 l 720 0 l 411 0 l 411 51 l 360 51 l 360 103 l 309 103 l 309 154 l 257 154 l 257 0 l 103 0 z "},"c":{"ha":926,"x_min":103,"x_max":874,"o":"m 257 0 l 257 51 l 205 51 l 205 103 l 154 103 l 154 154 l 103 154 l 103 617 l 154 617 l 154 669 l 205 669 l 205 720 l 257 720 l 257 771 l 720 771 l 720 720 l 771 720 l 771 669 l 823 669 l 823 617 l 874 617 l 874 463 l 720 463 l 720 514 l 669 514 l 669 566 l 617 566 l 617 617 l 360 617 l 360 566 l 309 566 l 309 514 l 257 514 l 257 257 l 309 257 l 309 205 l 360 205 l 360 154 l 617 154 l 617 205 l 669 205 l 669 257 l 720 257 l 720 309 l 874 309 l 874 154 l 823 154 l 823 103 l 771 103 l 771 51 l 720 51 l 720 0 l 257 0 z "},"d":{"ha":926,"x_min":103,"x_max":874,"o":"m 720 154 l 720 360 l 669 360 l 669 411 l 617 411 l 617 463 l 566 463 l 566 514 l 514 514 l 514 566 l 463 566 l 463 617 l 360 617 l 360 566 l 309 566 l 309 514 l 257 514 l 257 257 l 309 257 l 309 205 l 360 205 l 360 154 l 720 154 m 257 0 l 257 51 l 205 51 l 205 103 l 154 103 l 154 154 l 103 154 l 103 617 l 154 617 l 154 669 l 205 669 l 205 720 l 257 720 l 257 771 l 566 771 l 566 720 l 617 720 l 617 669 l 669 669 l 669 617 l 720 617 l 720 1080 l 874 1080 l 874 0 l 257 0 z "},"e":{"ha":926,"x_min":103,"x_max":874,"o":"m 720 463 l 720 514 l 669 514 l 669 566 l 617 566 l 617 617 l 360 617 l 360 566 l 309 566 l 309 514 l 257 514 l 257 463 l 720 463 m 257 0 l 257 51 l 205 51 l 205 103 l 154 103 l 154 154 l 103 154 l 103 617 l 154 617 l 154 669 l 205 669 l 205 720 l 257 720 l 257 771 l 720 771 l 720 720 l 771 720 l 771 669 l 823 669 l 823 617 l 874 617 l 874 309 l 257 309 l 257 257 l 309 257 l 309 205 l 360 205 l 360 154 l 874 154 l 874 0 l 257 0 z "},"f":{"ha":771,"x_min":103,"x_max":720,"o":"m 103 0 l 103 926 l 154 926 l 154 977 l 205 977 l 205 1029 l 257 1029 l 257 1080 l 566 1080 l 566 1029 l 617 1029 l 617 977 l 669 977 l 669 926 l 720 926 l 720 771 l 566 771 l 566 823 l 514 823 l 514 874 l 463 874 l 463 926 l 360 926 l 360 874 l 309 874 l 309 823 l 257 823 l 257 617 l 720 617 l 720 463 l 257 463 l 257 0 l 103 0 z "},"g":{"ha":926,"x_min":103,"x_max":874,"o":"m 463 154 l 463 205 l 514 205 l 514 257 l 566 257 l 566 309 l 617 309 l 617 360 l 669 360 l 669 411 l 720 411 l 720 617 l 360 617 l 360 566 l 309 566 l 309 514 l 257 514 l 257 257 l 309 257 l 309 205 l 360 205 l 360 154 l 463 154 m 103 -309 l 103 -154 l 617 -154 l 617 -103 l 669 -103 l 669 -51 l 720 -51 l 720 154 l 669 154 l 669 103 l 617 103 l 617 51 l 566 51 l 566 0 l 257 0 l 257 51 l 205 51 l 205 103 l 154 103 l 154 154 l 103 154 l 103 617 l 154 617 l 154 669 l 205 669 l 205 720 l 257 720 l 257 771 l 874 771 l 874 -154 l 823 -154 l 823 -205 l 771 -205 l 771 -257 l 720 -257 l 720 -309 l 103 -309 z "},"h":{"ha":926,"x_min":103,"x_max":874,"o":"m 103 0 l 103 1080 l 257 1080 l 257 617 l 309 617 l 309 669 l 360 669 l 360 720 l 411 720 l 411 771 l 720 771 l 720 720 l 771 720 l 771 669 l 823 669 l 823 617 l 874 617 l 874 0 l 720 0 l 720 514 l 669 514 l 669 566 l 617 566 l 617 617 l 514 617 l 514 566 l 463 566 l 463 514 l 411 514 l 411 463 l 360 463 l 360 411 l 309 411 l 309 360 l 257 360 l 257 0 l 103 0 z "},"i":{"ha":309,"x_min":103,"x_max":257,"o":"m 103 0 l 103 771 l 257 771 l 257 0 l 103 0 m 103 926 l 103 1080 l 257 1080 l 257 926 l 103 926 z "},"j":{"ha":926,"x_min":103,"x_max":874,"o":"m 257 -154 l 257 -103 l 205 -103 l 205 -51 l 154 -51 l 154 0 l 103 0 l 103 154 l 257 154 l 257 103 l 309 103 l 309 51 l 360 51 l 360 0 l 617 0 l 617 51 l 669 51 l 669 103 l 720 103 l 720 771 l 874 771 l 874 0 l 823 0 l 823 -51 l 771 -51 l 771 -103 l 720 -103 l 720 -154 l 257 -154 m 720 926 l 720 1080 l 874 1080 l 874 926 l 720 926 z "},"k":{"ha":771,"x_min":103,"x_max":720,"o":"m 103 0 l 103 1080 l 257 1080 l 257 463 l 309 463 l 309 514 l 360 514 l 360 566 l 411 566 l 411 617 l 463 617 l 463 669 l 514 669 l 514 720 l 566 720 l 566 771 l 720 771 l 720 617 l 669 617 l 669 566 l 617 566 l 617 514 l 566 514 l 566 463 l 514 463 l 514 411 l 463 411 l 463 360 l 514 360 l 514 309 l 566 309 l 566 257 l 617 257 l 617 205 l 669 205 l 669 154 l 720 154 l 720 0 l 566 0 l 566 51 l 514 51 l 514 103 l 463 103 l 463 154 l 411 154 l 411 205 l 360 205 l 360 257 l 309 257 l 309 309 l 257 309 l 257 0 l 103 0 z "},"l":{"ha":617,"x_min":103,"x_max":566,"o":"m 257 0 l 257 51 l 205 51 l 205 103 l 154 103 l 154 154 l 103 154 l 103 1080 l 257 1080 l 257 257 l 309 257 l 309 205 l 360 205 l 360 154 l 566 154 l 566 0 l 257 0 z "},"m":{"ha":926,"x_min":103,"x_max":874,"o":"m 103 0 l 103 771 l 411 771 l 411 720 l 463 720 l 463 669 l 514 669 l 514 720 l 566 720 l 566 771 l 720 771 l 720 720 l 771 720 l 771 669 l 823 669 l 823 617 l 874 617 l 874 0 l 720 0 l 720 514 l 669 514 l 669 566 l 617 566 l 617 514 l 566 514 l 566 309 l 411 309 l 411 514 l 360 514 l 360 566 l 309 566 l 309 514 l 257 514 l 257 0 l 103 0 z "},"n":{"ha":926,"x_min":103,"x_max":874,"o":"m 103 0 l 103 771 l 257 771 l 257 617 l 309 617 l 309 669 l 360 669 l 360 720 l 411 720 l 411 771 l 720 771 l 720 720 l 771 720 l 771 669 l 823 669 l 823 617 l 874 617 l 874 0 l 720 0 l 720 514 l 669 514 l 669 566 l 617 566 l 617 617 l 514 617 l 514 566 l 463 566 l 463 514 l 411 514 l 411 463 l 360 463 l 360 411 l 309 411 l 309 360 l 257 360 l 257 0 l 103 0 z "},"o":{"ha":926,"x_min":103,"x_max":874,"o":"m 617 154 l 617 205 l 669 205 l 669 257 l 720 257 l 720 514 l 669 514 l 669 566 l 617 566 l 617 617 l 360 617 l 360 566 l 309 566 l 309 514 l 257 514 l 257 257 l 309 257 l 309 205 l 360 205 l 360 154 l 617 154 m 257 0 l 257 51 l 205 51 l 205 103 l 154 103 l 154 154 l 103 154 l 103 617 l 154 617 l 154 669 l 205 669 l 205 720 l 257 720 l 257 771 l 720 771 l 720 720 l 771 720 l 771 669 l 823 669 l 823 617 l 874 617 l 874 154 l 823 154 l 823 103 l 771 103 l 771 51 l 720 51 l 720 0 l 257 0 z "},"p":{"ha":926,"x_min":103,"x_max":874,"o":"m 617 154 l 617 205 l 669 205 l 669 257 l 720 257 l 720 514 l 669 514 l 669 566 l 617 566 l 617 617 l 514 617 l 514 566 l 463 566 l 463 514 l 411 514 l 411 463 l 360 463 l 360 411 l 309 411 l 309 360 l 257 360 l 257 154 l 617 154 m 103 -309 l 103 771 l 257 771 l 257 617 l 309 617 l 309 669 l 360 669 l 360 720 l 411 720 l 411 771 l 720 771 l 720 720 l 771 720 l 771 669 l 823 669 l 823 617 l 874 617 l 874 154 l 823 154 l 823 103 l 771 103 l 771 51 l 720 51 l 720 0 l 257 0 l 257 -309 l 103 -309 z "},"q":{"ha":926,"x_min":103,"x_max":874,"o":"m 463 154 l 463 205 l 514 205 l 514 257 l 566 257 l 566 309 l 617 309 l 617 360 l 669 360 l 669 411 l 720 411 l 720 617 l 360 617 l 360 566 l 309 566 l 309 514 l 257 514 l 257 257 l 309 257 l 309 205 l 360 205 l 360 154 l 463 154 m 720 -309 l 720 154 l 669 154 l 669 103 l 617 103 l 617 51 l 566 51 l 566 0 l 257 0 l 257 51 l 205 51 l 205 103 l 154 103 l 154 154 l 103 154 l 103 617 l 154 617 l 154 669 l 205 669 l 205 720 l 257 720 l 257 771 l 874 771 l 874 -309 l 720 -309 z "},"r":{"ha":926,"x_min":103,"x_max":874,"o":"m 103 0 l 103 771 l 257 771 l 257 617 l 309 617 l 309 669 l 360 669 l 360 720 l 411 720 l 411 771 l 720 771 l 720 720 l 771 720 l 771 669 l 823 669 l 823 617 l 874 617 l 874 463 l 720 463 l 720 514 l 669 514 l 669 566 l 617 566 l 617 617 l 514 617 l 514 566 l 463 566 l 463 514 l 411 514 l 411 463 l 360 463 l 360 411 l 309 411 l 309 360 l 257 360 l 257 0 l 103 0 z "},"s":{"ha":926,"x_min":103,"x_max":874,"o":"m 103 0 l 103 154 l 617 154 l 617 205 l 669 205 l 669 257 l 617 257 l 617 309 l 257 309 l 257 360 l 205 360 l 205 411 l 154 411 l 154 463 l 103 463 l 103 617 l 154 617 l 154 669 l 205 669 l 205 720 l 257 720 l 257 771 l 874 771 l 874 617 l 360 617 l 360 566 l 309 566 l 309 514 l 360 514 l 360 463 l 720 463 l 720 411 l 771 411 l 771 360 l 823 360 l 823 309 l 874 309 l 874 154 l 823 154 l 823 103 l 771 103 l 771 51 l 720 51 l 720 0 l 103 0 z "},"t":{"ha":771,"x_min":103,"x_max":720,"o":"m 257 0 l 257 51 l 205 51 l 205 103 l 154 103 l 154 154 l 103 154 l 103 1080 l 257 1080 l 257 771 l 720 771 l 720 617 l 257 617 l 257 257 l 309 257 l 309 205 l 360 205 l 360 154 l 463 154 l 463 205 l 514 205 l 514 257 l 566 257 l 566 463 l 720 463 l 720 154 l 669 154 l 669 103 l 617 103 l 617 51 l 566 51 l 566 0 l 257 0 z "},"u":{"ha":926,"x_min":103,"x_max":874,"o":"m 257 0 l 257 51 l 205 51 l 205 103 l 154 103 l 154 154 l 103 154 l 103 771 l 257 771 l 257 257 l 309 257 l 309 205 l 360 205 l 360 154 l 463 154 l 463 205 l 514 205 l 514 257 l 566 257 l 566 309 l 617 309 l 617 360 l 669 360 l 669 411 l 720 411 l 720 771 l 874 771 l 874 0 l 720 0 l 720 154 l 669 154 l 669 103 l 617 103 l 617 51 l 566 51 l 566 0 l 257 0 z "},"v":{"ha":926,"x_min":103,"x_max":874,"o":"m 411 0 l 411 51 l 360 51 l 360 103 l 309 103 l 309 154 l 257 154 l 257 205 l 205 205 l 205 257 l 154 257 l 154 309 l 103 309 l 103 771 l 257 771 l 257 411 l 309 411 l 309 360 l 360 360 l 360 309 l 411 309 l 411 257 l 463 257 l 463 205 l 514 205 l 514 257 l 566 257 l 566 309 l 617 309 l 617 360 l 669 360 l 669 411 l 720 411 l 720 771 l 874 771 l 874 309 l 823 309 l 823 257 l 771 257 l 771 205 l 720 205 l 720 154 l 669 154 l 669 103 l 617 103 l 617 51 l 566 51 l 566 0 l 411 0 z "},"w":{"ha":926,"x_min":103,"x_max":874,"o":"m 257 0 l 257 51 l 205 51 l 205 103 l 154 103 l 154 154 l 103 154 l 103 771 l 257 771 l 257 257 l 309 257 l 309 205 l 360 205 l 360 257 l 411 257 l 411 463 l 566 463 l 566 257 l 617 257 l 617 205 l 669 205 l 669 257 l 720 257 l 720 771 l 874 771 l 874 154 l 823 154 l 823 103 l 771 103 l 771 51 l 720 51 l 720 0 l 566 0 l 566 51 l 514 51 l 514 103 l 463 103 l 463 51 l 411 51 l 411 0 l 257 0 z "},"x":{"ha":926,"x_min":103,"x_max":874,"o":"m 103 0 l 103 154 l 154 154 l 154 205 l 205 205 l 205 257 l 257 257 l 257 309 l 309 309 l 309 360 l 360 360 l 360 411 l 309 411 l 309 463 l 257 463 l 257 514 l 205 514 l 205 566 l 154 566 l 154 617 l 103 617 l 103 771 l 257 771 l 257 720 l 309 720 l 309 669 l 360 669 l 360 617 l 411 617 l 411 566 l 463 566 l 463 514 l 514 514 l 514 566 l 566 566 l 566 617 l 617 617 l 617 669 l 669 669 l 669 720 l 720 720 l 720 771 l 874 771 l 874 617 l 823 617 l 823 566 l 771 566 l 771 514 l 720 514 l 720 463 l 669 463 l 669 411 l 617 411 l 617 360 l 669 360 l 669 309 l 720 309 l 720 257 l 771 257 l 771 205 l 823 205 l 823 154 l 874 154 l 874 0 l 720 0 l 720 51 l 669 51 l 669 103 l 617 103 l 617 154 l 566 154 l 566 205 l 514 205 l 514 257 l 463 257 l 463 205 l 411 205 l 411 154 l 360 154 l 360 103 l 309 103 l 309 51 l 257 51 l 257 0 l 103 0 z "},"y":{"ha":926,"x_min":103,"x_max":874,"o":"m 257 -309 l 257 -154 l 617 -154 l 617 -103 l 669 -103 l 669 -51 l 720 -51 l 720 154 l 257 154 l 257 205 l 205 205 l 205 257 l 154 257 l 154 309 l 103 309 l 103 771 l 257 771 l 257 411 l 309 411 l 309 360 l 360 360 l 360 309 l 720 309 l 720 771 l 874 771 l 874 -154 l 823 -154 l 823 -205 l 771 -205 l 771 -257 l 720 -257 l 720 -309 l 257 -309 z "},"z":{"ha":926,"x_min":103,"x_max":874,"o":"m 103 0 l 103 154 l 154 154 l 154 205 l 205 205 l 205 257 l 257 257 l 257 309 l 309 309 l 309 360 l 360 360 l 360 411 l 411 411 l 411 463 l 463 463 l 463 514 l 514 514 l 514 566 l 566 566 l 566 617 l 103 617 l 103 771 l 874 771 l 874 617 l 823 617 l 823 566 l 771 566 l 771 514 l 720 514 l 720 463 l 669 463 l 669 411 l 617 411 l 617 360 l 566 360 l 566 309 l 514 309 l 514 257 l 463 257 l 463 205 l 411 205 l 411 154 l 874 154 l 874 0 l 103 0 z "},"{":{"ha":617,"x_min":103,"x_max":566,"o":"m 411 0 l 411 51 l 360 51 l 360 103 l 309 103 l 309 154 l 257 154 l 257 411 l 205 411 l 205 463 l 103 463 l 103 617 l 205 617 l 205 669 l 257 669 l 257 926 l 309 926 l 309 977 l 360 977 l 360 1029 l 411 1029 l 411 1080 l 566 1080 l 566 926 l 514 926 l 514 874 l 463 874 l 463 823 l 411 823 l 411 617 l 360 617 l 360 566 l 309 566 l 309 514 l 360 514 l 360 463 l 411 463 l 411 257 l 463 257 l 463 205 l 514 205 l 514 154 l 566 154 l 566 0 l 411 0 z "},"|":{"ha":309,"x_min":103,"x_max":257,"o":"m 103 -309 l 103 1080 l 257 1080 l 257 -309 l 103 -309 z "},"}":{"ha":617,"x_min":103,"x_max":566,"o":"m 103 0 l 103 154 l 154 154 l 154 205 l 205 205 l 205 257 l 257 257 l 257 463 l 309 463 l 309 514 l 360 514 l 360 566 l 309 566 l 309 617 l 257 617 l 257 823 l 205 823 l 205 874 l 154 874 l 154 926 l 103 926 l 103 1080 l 257 1080 l 257 1029 l 309 1029 l 309 977 l 360 977 l 360 926 l 411 926 l 411 669 l 463 669 l 463 617 l 566 617 l 566 463 l 463 463 l 463 411 l 411 411 l 411 154 l 360 154 l 360 103 l 309 103 l 309 51 l 257 51 l 257 0 l 103 0 z "},"~":{"ha":1080,"x_min":103,"x_max":1029,"o":"m 103 617 l 103 771 l 154 771 l 154 823 l 205 823 l 205 874 l 257 874 l 257 926 l 566 926 l 566 874 l 617 874 l 617 823 l 669 823 l 669 771 l 771 771 l 771 823 l 823 823 l 823 874 l 874 874 l 874 926 l 1029 926 l 1029 771 l 977 771 l 977 720 l 926 720 l 926 669 l 874 669 l 874 617 l 566 617 l 566 669 l 514 669 l 514 720 l 463 720 l 463 771 l 360 771 l 360 720 l 309 720 l 309 669 l 257 669 l 257 617 l 103 617 z "},"¡":{"ha":309,"x_min":103,"x_max":257,"o":"m 103 0 l 103 771 l 257 771 l 257 0 l 103 0 m 103 926 l 103 1080 l 257 1080 l 257 926 l 103 926 z "},"¢":{"ha":926,"x_min":103,"x_max":874,"o":"m 411 154 l 411 617 l 360 617 l 360 566 l 309 566 l 309 514 l 257 514 l 257 257 l 309 257 l 309 205 l 360 205 l 360 154 l 411 154 m 411 -154 l 411 0 l 257 0 l 257 51 l 205 51 l 205 103 l 154 103 l 154 154 l 103 154 l 103 617 l 154 617 l 154 669 l 205 669 l 205 720 l 257 720 l 257 771 l 411 771 l 411 926 l 566 926 l 566 771 l 720 771 l 720 720 l 771 720 l 771 669 l 823 669 l 823 617 l 874 617 l 874 463 l 720 463 l 720 514 l 669 514 l 669 566 l 617 566 l 617 617 l 566 617 l 566 154 l 617 154 l 617 205 l 669 205 l 669 257 l 720 257 l 720 309 l 874 309 l 874 154 l 823 154 l 823 103 l 771 103 l 771 51 l 720 51 l 720 0 l 566 0 l 566 -154 l 411 -154 z "},"£":{"ha":926,"x_min":103,"x_max":874,"o":"m 103 0 l 103 154 l 257 154 l 257 463 l 103 463 l 103 617 l 257 617 l 257 926 l 309 926 l 309 977 l 360 977 l 360 1029 l 411 1029 l 411 1080 l 720 1080 l 720 1029 l 771 1029 l 771 977 l 823 977 l 823 926 l 874 926 l 874 771 l 720 771 l 720 823 l 669 823 l 669 874 l 617 874 l 617 926 l 514 926 l 514 874 l 463 874 l 463 823 l 411 823 l 411 617 l 771 617 l 771 463 l 411 463 l 411 154 l 874 154 l 874 0 l 103 0 z "},"¤":{"ha":669,"x_min":103,"x_max":617,"o":"m 103 257 l 103 360 l 205 360 l 205 257 l 103 257 m 309 257 l 309 360 l 411 360 l 411 257 l 309 257 m 514 257 l 514 360 l 617 360 l 617 257 l 514 257 m 205 360 l 205 463 l 309 463 l 309 360 l 205 360 m 411 360 l 411 463 l 514 463 l 514 360 l 411 360 m 103 463 l 103 566 l 205 566 l 205 463 l 103 463 m 514 463 l 514 566 l 617 566 l 617 463 l 514 463 m 205 566 l 205 669 l 309 669 l 309 566 l 205 566 m 411 566 l 411 669 l 514 669 l 514 566 l 411 566 m 103 669 l 103 771 l 205 771 l 205 669 l 103 669 m 309 669 l 309 771 l 411 771 l 411 669 l 309 669 m 514 669 l 514 771 l 617 771 l 617 669 l 514 669 z "},"¥":{"ha":926,"x_min":103,"x_max":874,"o":"m 411 0 l 411 154 l 103 154 l 103 309 l 411 309 l 411 463 l 103 463 l 103 617 l 411 617 l 411 669 l 360 669 l 360 720 l 309 720 l 309 771 l 257 771 l 257 823 l 205 823 l 205 874 l 154 874 l 154 926 l 103 926 l 103 1080 l 257 1080 l 257 1029 l 309 1029 l 309 977 l 360 977 l 360 926 l 411 926 l 411 874 l 463 874 l 463 823 l 514 823 l 514 874 l 566 874 l 566 926 l 617 926 l 617 977 l 669 977 l 669 1029 l 720 1029 l 720 1080 l 874 1080 l 874 926 l 823 926 l 823 874 l 771 874 l 771 823 l 720 823 l 720 771 l 669 771 l 669 720 l 617 720 l 617 669 l 566 669 l 566 617 l 874 617 l 874 463 l 566 463 l 566 309 l 874 309 l 874 154 l 566 154 l 566 0 l 411 0 z "},"¦":{"ha":309,"x_min":103,"x_max":257,"o":"m 103 -309 l 103 309 l 257 309 l 257 -309 l 103 -309 m 103 463 l 103 1080 l 257 1080 l 257 463 l 103 463 z "},"¨":{"ha":617,"x_min":103,"x_max":566,"o":"m 103 771 l 103 926 l 257 926 l 257 771 l 103 771 m 411 771 l 411 926 l 566 926 l 566 771 l 411 771 z "},"©":{"ha":823,"x_min":103,"x_max":771,"o":"m 360 463 l 360 514 l 309 514 l 309 566 l 257 566 l 257 823 l 309 823 l 309 874 l 360 874 l 360 926 l 514 926 l 514 874 l 566 874 l 566 823 l 617 823 l 617 720 l 514 720 l 514 771 l 463 771 l 463 823 l 411 823 l 411 771 l 360 771 l 360 617 l 411 617 l 411 566 l 463 566 l 463 617 l 514 617 l 514 669 l 617 669 l 617 566 l 566 566 l 566 514 l 514 514 l 514 463 l 360 463 m 514 411 l 514 463 l 566 463 l 566 514 l 617 514 l 617 566 l 669 566 l 669 823 l 617 823 l 617 874 l 566 874 l 566 926 l 514 926 l 514 977 l 360 977 l 360 926 l 309 926 l 309 874 l 257 874 l 257 823 l 205 823 l 205 566 l 257 566 l 257 514 l 309 514 l 309 463 l 360 463 l 360 411 l 514 411 m 309 309 l 309 360 l 257 360 l 257 411 l 205 411 l 205 463 l 154 463 l 154 514 l 103 514 l 103 874 l 154 874 l 154 926 l 205 926 l 205 977 l 257 977 l 257 1029 l 309 1029 l 309 1080 l 566 1080 l 566 1029 l 617 1029 l 617 977 l 669 977 l 669 926 l 720 926 l 720 874 l 771 874 l 771 514 l 720 514 l 720 463 l 669 463 l 669 411 l 617 411 l 617 360 l 566 360 l 566 309 l 309 309 z "},"ª":{"ha":771,"x_min":103,"x_max":720,"o":"m 103 103 l 103 257 l 720 257 l 720 103 l 103 103 m 257 463 l 257 514 l 205 514 l 205 566 l 154 566 l 154 617 l 103 617 l 103 771 l 566 771 l 566 823 l 514 823 l 514 874 l 463 874 l 463 926 l 257 926 l 257 1080 l 566 1080 l 566 1029 l 617 1029 l 617 977 l 669 977 l 669 926 l 720 926 l 720 463 l 257 463 z "},"«":{"ha":1080,"x_min":103,"x_max":1029,"o":"m 411 0 l 411 51 l 360 51 l 360 103 l 309 103 l 309 154 l 257 154 l 257 205 l 205 205 l 205 257 l 154 257 l 154 309 l 103 309 l 103 463 l 154 463 l 154 514 l 205 514 l 205 566 l 257 566 l 257 617 l 309 617 l 309 669 l 360 669 l 360 720 l 411 720 l 411 771 l 566 771 l 566 617 l 514 617 l 514 566 l 463 566 l 463 514 l 411 514 l 411 463 l 360 463 l 360 411 l 309 411 l 309 360 l 360 360 l 360 309 l 411 309 l 411 257 l 463 257 l 463 205 l 514 205 l 514 154 l 566 154 l 566 0 l 411 0 m 874 0 l 874 51 l 823 51 l 823 103 l 771 103 l 771 154 l 720 154 l 720 205 l 669 205 l 669 257 l 617 257 l 617 309 l 566 309 l 566 463 l 617 463 l 617 514 l 669 514 l 669 566 l 720 566 l 720 617 l 771 617 l 771 669 l 823 669 l 823 720 l 874 720 l 874 771 l 1029 771 l 1029 617 l 977 617 l 977 566 l 926 566 l 926 514 l 874 514 l 874 463 l 823 463 l 823 411 l 771 411 l 771 360 l 823 360 l 823 309 l 874 309 l 874 257 l 926 257 l 926 205 l 977 205 l 977 154 l 1029 154 l 1029 0 l 874 0 z "},"¬":{"ha":926,"x_min":103,"x_max":874,"o":"m 720 154 l 720 309 l 103 309 l 103 463 l 874 463 l 874 154 l 720 154 z "},"­":{"ha":771,"x_min":103,"x_max":720,"o":"m 103 309 l 103 463 l 720 463 l 720 309 l 103 309 z "},"®":{"ha":823,"x_min":103,"x_max":771,"o":"m 514 720 l 514 771 l 411 771 l 411 720 l 514 720 m 514 411 l 514 514 l 463 514 l 463 617 l 411 617 l 411 514 l 309 514 l 309 874 l 566 874 l 566 823 l 617 823 l 617 669 l 566 669 l 566 566 l 669 566 l 669 823 l 617 823 l 617 874 l 566 874 l 566 926 l 514 926 l 514 977 l 360 977 l 360 926 l 309 926 l 309 874 l 257 874 l 257 823 l 205 823 l 205 566 l 257 566 l 257 514 l 309 514 l 309 463 l 360 463 l 360 411 l 514 411 m 309 309 l 309 360 l 257 360 l 257 411 l 205 411 l 205 463 l 154 463 l 154 514 l 103 514 l 103 874 l 154 874 l 154 926 l 205 926 l 205 977 l 257 977 l 257 1029 l 309 1029 l 309 1080 l 566 1080 l 566 1029 l 617 1029 l 617 977 l 669 977 l 669 926 l 720 926 l 720 874 l 771 874 l 771 514 l 720 514 l 720 463 l 669 463 l 669 411 l 617 411 l 617 360 l 566 360 l 566 309 l 309 309 z "},"¯":{"ha":771,"x_min":103,"x_max":720,"o":"m 103 617 l 103 771 l 720 771 l 720 617 l 103 617 z "},"±":{"ha":926,"x_min":103,"x_max":874,"o":"m 103 0 l 103 154 l 874 154 l 874 0 l 103 0 m 411 309 l 411 463 l 103 463 l 103 617 l 411 617 l 411 771 l 566 771 l 566 617 l 874 617 l 874 463 l 566 463 l 566 309 l 411 309 z "},"µ":{"ha":926,"x_min":103,"x_max":874,"o":"m 103 -309 l 103 771 l 257 771 l 257 566 l 309 566 l 309 514 l 360 514 l 360 463 l 411 463 l 411 411 l 463 411 l 463 360 l 514 360 l 514 411 l 566 411 l 566 463 l 617 463 l 617 514 l 669 514 l 669 566 l 720 566 l 720 771 l 874 771 l 874 0 l 720 0 l 720 309 l 669 309 l 669 257 l 617 257 l 617 205 l 566 205 l 566 154 l 411 154 l 411 205 l 360 205 l 360 257 l 309 257 l 309 309 l 257 309 l 257 -309 l 103 -309 z "},"¶":{"ha":926,"x_min":103,"x_max":874,"o":"m 720 154 l 720 926 l 617 926 l 617 154 l 720 154 m 463 0 l 463 463 l 257 463 l 257 514 l 205 514 l 205 566 l 154 566 l 154 617 l 103 617 l 103 926 l 154 926 l 154 977 l 205 977 l 205 1029 l 257 1029 l 257 1080 l 874 1080 l 874 0 l 463 0 z "},"»":{"ha":1080,"x_min":103,"x_max":1029,"o":"m 103 0 l 103 154 l 154 154 l 154 205 l 205 205 l 205 257 l 257 257 l 257 309 l 309 309 l 309 360 l 360 360 l 360 411 l 309 411 l 309 463 l 257 463 l 257 514 l 205 514 l 205 566 l 154 566 l 154 617 l 103 617 l 103 771 l 257 771 l 257 720 l 309 720 l 309 669 l 360 669 l 360 617 l 411 617 l 411 566 l 463 566 l 463 514 l 514 514 l 514 463 l 566 463 l 566 309 l 514 309 l 514 257 l 463 257 l 463 205 l 411 205 l 411 154 l 360 154 l 360 103 l 309 103 l 309 51 l 257 51 l 257 0 l 103 0 m 566 0 l 566 154 l 617 154 l 617 205 l 669 205 l 669 257 l 720 257 l 720 309 l 771 309 l 771 360 l 823 360 l 823 411 l 771 411 l 771 463 l 720 463 l 720 514 l 669 514 l 669 566 l 617 566 l 617 617 l 566 617 l 566 771 l 720 771 l 720 720 l 771 720 l 771 669 l 823 669 l 823 617 l 874 617 l 874 566 l 926 566 l 926 514 l 977 514 l 977 463 l 1029 463 l 1029 309 l 977 309 l 977 257 l 926 257 l 926 205 l 874 205 l 874 154 l 823 154 l 823 103 l 771 103 l 771 51 l 720 51 l 720 0 l 566 0 z "},"¿":{"ha":926,"x_min":103,"x_max":874,"o":"m 257 0 l 257 51 l 205 51 l 205 103 l 154 103 l 154 154 l 103 154 l 103 463 l 154 463 l 154 514 l 205 514 l 205 566 l 257 566 l 257 617 l 309 617 l 309 669 l 360 669 l 360 720 l 411 720 l 411 771 l 566 771 l 566 617 l 514 617 l 514 566 l 463 566 l 463 514 l 411 514 l 411 463 l 360 463 l 360 411 l 309 411 l 309 360 l 257 360 l 257 257 l 309 257 l 309 205 l 360 205 l 360 154 l 617 154 l 617 205 l 669 205 l 669 257 l 720 257 l 720 309 l 874 309 l 874 154 l 823 154 l 823 103 l 771 103 l 771 51 l 720 51 l 720 0 l 257 0 m 411 926 l 411 1080 l 566 1080 l 566 926 l 411 926 z "},"À":{"ha":926,"x_min":103,"x_max":874,"o":"m 720 617 l 720 823 l 669 823 l 669 874 l 617 874 l 617 926 l 360 926 l 360 874 l 309 874 l 309 823 l 257 823 l 257 617 l 720 617 m 103 0 l 103 926 l 154 926 l 154 977 l 205 977 l 205 1029 l 257 1029 l 257 1080 l 720 1080 l 720 1029 l 771 1029 l 771 977 l 823 977 l 823 926 l 874 926 l 874 0 l 720 0 l 720 463 l 257 463 l 257 0 l 103 0 m 411 1234 l 411 1286 l 360 1286 l 360 1337 l 309 1337 l 309 1389 l 257 1389 l 257 1543 l 411 1543 l 411 1492 l 463 1492 l 463 1440 l 514 1440 l 514 1389 l 566 1389 l 566 1234 l 411 1234 z "},"Á":{"ha":926,"x_min":103,"x_max":874,"o":"m 720 617 l 720 823 l 669 823 l 669 874 l 617 874 l 617 926 l 360 926 l 360 874 l 309 874 l 309 823 l 257 823 l 257 617 l 720 617 m 103 0 l 103 926 l 154 926 l 154 977 l 205 977 l 205 1029 l 257 1029 l 257 1080 l 720 1080 l 720 1029 l 771 1029 l 771 977 l 823 977 l 823 926 l 874 926 l 874 0 l 720 0 l 720 463 l 257 463 l 257 0 l 103 0 m 411 1234 l 411 1389 l 463 1389 l 463 1440 l 514 1440 l 514 1492 l 566 1492 l 566 1543 l 720 1543 l 720 1389 l 669 1389 l 669 1337 l 617 1337 l 617 1286 l 566 1286 l 566 1234 l 411 1234 z "},"Â":{"ha":926,"x_min":103,"x_max":874,"o":"m 720 617 l 720 823 l 669 823 l 669 874 l 617 874 l 617 926 l 360 926 l 360 874 l 309 874 l 309 823 l 257 823 l 257 617 l 720 617 m 103 0 l 103 926 l 154 926 l 154 977 l 205 977 l 205 1029 l 257 1029 l 257 1080 l 720 1080 l 720 1029 l 771 1029 l 771 977 l 823 977 l 823 926 l 874 926 l 874 0 l 720 0 l 720 463 l 257 463 l 257 0 l 103 0 m 257 1234 l 257 1389 l 309 1389 l 309 1440 l 360 1440 l 360 1492 l 411 1492 l 411 1543 l 566 1543 l 566 1492 l 617 1492 l 617 1440 l 669 1440 l 669 1389 l 720 1389 l 720 1234 l 566 1234 l 566 1286 l 514 1286 l 514 1337 l 463 1337 l 463 1286 l 411 1286 l 411 1234 l 257 1234 z "},"Ã":{"ha":926,"x_min":103,"x_max":874,"o":"m 720 617 l 720 823 l 669 823 l 669 874 l 617 874 l 617 926 l 360 926 l 360 874 l 309 874 l 309 823 l 257 823 l 257 617 l 720 617 m 103 0 l 103 926 l 154 926 l 154 977 l 205 977 l 205 1029 l 257 1029 l 257 1080 l 720 1080 l 720 1029 l 771 1029 l 771 977 l 823 977 l 823 926 l 874 926 l 874 0 l 720 0 l 720 463 l 257 463 l 257 0 l 103 0 m 205 1234 l 205 1389 l 257 1389 l 257 1440 l 309 1440 l 309 1492 l 360 1492 l 360 1543 l 514 1543 l 514 1492 l 566 1492 l 566 1440 l 617 1440 l 617 1492 l 669 1492 l 669 1543 l 823 1543 l 823 1389 l 771 1389 l 771 1337 l 720 1337 l 720 1286 l 669 1286 l 669 1234 l 514 1234 l 514 1286 l 463 1286 l 463 1337 l 411 1337 l 411 1286 l 360 1286 l 360 1234 l 205 1234 z "},"Ä":{"ha":926,"x_min":103,"x_max":874,"o":"m 720 617 l 720 823 l 669 823 l 669 874 l 617 874 l 617 926 l 360 926 l 360 874 l 309 874 l 309 823 l 257 823 l 257 617 l 720 617 m 103 0 l 103 926 l 154 926 l 154 977 l 205 977 l 205 1029 l 257 1029 l 257 1080 l 720 1080 l 720 1029 l 771 1029 l 771 977 l 823 977 l 823 926 l 874 926 l 874 0 l 720 0 l 720 463 l 257 463 l 257 0 l 103 0 m 257 1234 l 257 1389 l 411 1389 l 411 1234 l 257 1234 m 566 1234 l 566 1389 l 720 1389 l 720 1234 l 566 1234 z "},"Å":{"ha":926,"x_min":103,"x_max":874,"o":"m 720 617 l 720 823 l 669 823 l 669 874 l 617 874 l 617 926 l 360 926 l 360 874 l 309 874 l 309 823 l 257 823 l 257 617 l 720 617 m 514 1234 l 514 1286 l 566 1286 l 566 1337 l 514 1337 l 514 1389 l 463 1389 l 463 1337 l 411 1337 l 411 1286 l 463 1286 l 463 1234 l 514 1234 m 103 0 l 103 926 l 154 926 l 154 977 l 205 977 l 205 1029 l 257 1029 l 257 1080 l 411 1080 l 411 1132 l 360 1132 l 360 1183 l 309 1183 l 309 1234 l 257 1234 l 257 1389 l 309 1389 l 309 1440 l 360 1440 l 360 1492 l 411 1492 l 411 1543 l 566 1543 l 566 1492 l 617 1492 l 617 1440 l 669 1440 l 669 1389 l 720 1389 l 720 1234 l 669 1234 l 669 1183 l 617 1183 l 617 1132 l 566 1132 l 566 1080 l 720 1080 l 720 1029 l 771 1029 l 771 977 l 823 977 l 823 926 l 874 926 l 874 0 l 720 0 l 720 463 l 257 463 l 257 0 l 103 0 z "},"Æ":{"ha":1543,"x_min":103,"x_max":1492,"o":"m 720 617 l 720 823 l 669 823 l 669 874 l 617 874 l 617 926 l 360 926 l 360 874 l 309 874 l 309 823 l 257 823 l 257 617 l 720 617 m 103 0 l 103 926 l 154 926 l 154 977 l 205 977 l 205 1029 l 257 1029 l 257 1080 l 720 1080 l 720 1029 l 771 1029 l 771 977 l 823 977 l 823 1029 l 874 1029 l 874 1080 l 1492 1080 l 1492 926 l 977 926 l 977 874 l 926 874 l 926 823 l 874 823 l 874 617 l 1337 617 l 1337 463 l 874 463 l 874 257 l 926 257 l 926 205 l 977 205 l 977 154 l 1492 154 l 1492 0 l 874 0 l 874 51 l 823 51 l 823 103 l 771 103 l 771 154 l 720 154 l 720 463 l 257 463 l 257 0 l 103 0 z "},"Ç":{"ha":926,"x_min":103,"x_max":874,"o":"m 257 -309 l 257 -154 l 309 -154 l 309 -103 l 360 -103 l 360 -51 l 411 -51 l 411 0 l 257 0 l 257 51 l 205 51 l 205 103 l 154 103 l 154 154 l 103 154 l 103 926 l 154 926 l 154 977 l 205 977 l 205 1029 l 257 1029 l 257 1080 l 720 1080 l 720 1029 l 771 1029 l 771 977 l 823 977 l 823 926 l 874 926 l 874 771 l 720 771 l 720 823 l 669 823 l 669 874 l 617 874 l 617 926 l 360 926 l 360 874 l 309 874 l 309 823 l 257 823 l 257 257 l 309 257 l 309 205 l 360 205 l 360 154 l 617 154 l 617 205 l 669 205 l 669 257 l 720 257 l 720 309 l 874 309 l 874 154 l 823 154 l 823 103 l 771 103 l 771 51 l 720 51 l 720 0 l 669 0 l 669 -51 l 617 -51 l 617 -103 l 566 -103 l 566 -154 l 514 -154 l 514 -205 l 463 -205 l 463 -257 l 411 -257 l 411 -309 l 257 -309 z "},"È":{"ha":926,"x_min":103,"x_max":874,"o":"m 257 0 l 257 51 l 205 51 l 205 103 l 154 103 l 154 154 l 103 154 l 103 926 l 154 926 l 154 977 l 205 977 l 205 1029 l 257 1029 l 257 1080 l 874 1080 l 874 926 l 360 926 l 360 874 l 309 874 l 309 823 l 257 823 l 257 617 l 720 617 l 720 463 l 257 463 l 257 257 l 309 257 l 309 205 l 360 205 l 360 154 l 874 154 l 874 0 l 257 0 m 463 1234 l 463 1286 l 411 1286 l 411 1337 l 360 1337 l 360 1389 l 309 1389 l 309 1543 l 463 1543 l 463 1492 l 514 1492 l 514 1440 l 566 1440 l 566 1389 l 617 1389 l 617 1234 l 463 1234 z "},"É":{"ha":926,"x_min":103,"x_max":874,"o":"m 257 0 l 257 51 l 205 51 l 205 103 l 154 103 l 154 154 l 103 154 l 103 926 l 154 926 l 154 977 l 205 977 l 205 1029 l 257 1029 l 257 1080 l 874 1080 l 874 926 l 360 926 l 360 874 l 309 874 l 309 823 l 257 823 l 257 617 l 720 617 l 720 463 l 257 463 l 257 257 l 309 257 l 309 205 l 360 205 l 360 154 l 874 154 l 874 0 l 257 0 m 463 1234 l 463 1389 l 514 1389 l 514 1440 l 566 1440 l 566 1492 l 617 1492 l 617 1543 l 771 1543 l 771 1389 l 720 1389 l 720 1337 l 669 1337 l 669 1286 l 617 1286 l 617 1234 l 463 1234 z "},"Ê":{"ha":926,"x_min":103,"x_max":874,"o":"m 257 0 l 257 51 l 205 51 l 205 103 l 154 103 l 154 154 l 103 154 l 103 926 l 154 926 l 154 977 l 205 977 l 205 1029 l 257 1029 l 257 1080 l 874 1080 l 874 926 l 360 926 l 360 874 l 309 874 l 309 823 l 257 823 l 257 617 l 720 617 l 720 463 l 257 463 l 257 257 l 309 257 l 309 205 l 360 205 l 360 154 l 874 154 l 874 0 l 257 0 m 257 1234 l 257 1389 l 309 1389 l 309 1440 l 360 1440 l 360 1492 l 411 1492 l 411 1543 l 566 1543 l 566 1492 l 617 1492 l 617 1440 l 669 1440 l 669 1389 l 720 1389 l 720 1234 l 566 1234 l 566 1286 l 514 1286 l 514 1337 l 463 1337 l 463 1286 l 411 1286 l 411 1234 l 257 1234 z "},"Ë":{"ha":926,"x_min":103,"x_max":874,"o":"m 257 0 l 257 51 l 205 51 l 205 103 l 154 103 l 154 154 l 103 154 l 103 926 l 154 926 l 154 977 l 205 977 l 205 1029 l 257 1029 l 257 1080 l 874 1080 l 874 926 l 360 926 l 360 874 l 309 874 l 309 823 l 257 823 l 257 617 l 720 617 l 720 463 l 257 463 l 257 257 l 309 257 l 309 205 l 360 205 l 360 154 l 874 154 l 874 0 l 257 0 m 257 1234 l 257 1389 l 411 1389 l 411 1234 l 257 1234 m 617 1234 l 617 1389 l 771 1389 l 771 1234 l 617 1234 z "},"Ì":{"ha":926,"x_min":103,"x_max":874,"o":"m 103 0 l 103 154 l 411 154 l 411 926 l 103 926 l 103 1080 l 874 1080 l 874 926 l 566 926 l 566 154 l 874 154 l 874 0 l 103 0 m 411 1234 l 411 1286 l 360 1286 l 360 1337 l 309 1337 l 309 1389 l 257 1389 l 257 1543 l 411 1543 l 411 1492 l 463 1492 l 463 1440 l 514 1440 l 514 1389 l 566 1389 l 566 1234 l 411 1234 z "},"Í":{"ha":926,"x_min":103,"x_max":874,"o":"m 103 0 l 103 154 l 411 154 l 411 926 l 103 926 l 103 1080 l 874 1080 l 874 926 l 566 926 l 566 154 l 874 154 l 874 0 l 103 0 m 411 1234 l 411 1389 l 463 1389 l 463 1440 l 514 1440 l 514 1492 l 566 1492 l 566 1543 l 720 1543 l 720 1389 l 669 1389 l 669 1337 l 617 1337 l 617 1286 l 566 1286 l 566 1234 l 411 1234 z "},"Î":{"ha":926,"x_min":103,"x_max":874,"o":"m 103 0 l 103 154 l 411 154 l 411 926 l 103 926 l 103 1080 l 874 1080 l 874 926 l 566 926 l 566 154 l 874 154 l 874 0 l 103 0 m 257 1234 l 257 1389 l 309 1389 l 309 1440 l 360 1440 l 360 1492 l 411 1492 l 411 1543 l 566 1543 l 566 1492 l 617 1492 l 617 1440 l 669 1440 l 669 1389 l 720 1389 l 720 1234 l 566 1234 l 566 1286 l 514 1286 l 514 1337 l 463 1337 l 463 1286 l 411 1286 l 411 1234 l 257 1234 z "},"Ï":{"ha":926,"x_min":103,"x_max":874,"o":"m 103 0 l 103 154 l 411 154 l 411 926 l 103 926 l 103 1080 l 874 1080 l 874 926 l 566 926 l 566 154 l 874 154 l 874 0 l 103 0 m 257 1234 l 257 1389 l 411 1389 l 411 1234 l 257 1234 m 566 1234 l 566 1389 l 720 1389 l 720 1234 l 566 1234 z "},"Ð":{"ha":926,"x_min":-51,"x_max":874,"o":"m 617 154 l 617 205 l 669 205 l 669 257 l 720 257 l 720 823 l 669 823 l 669 874 l 617 874 l 617 926 l 257 926 l 257 617 l 411 617 l 411 463 l 257 463 l 257 154 l 617 154 m 103 0 l 103 463 l -51 463 l -51 617 l 103 617 l 103 1080 l 720 1080 l 720 1029 l 771 1029 l 771 977 l 823 977 l 823 926 l 874 926 l 874 154 l 823 154 l 823 103 l 771 103 l 771 51 l 720 51 l 720 0 l 103 0 z "},"Ñ":{"ha":926,"x_min":103,"x_max":874,"o":"m 103 0 l 103 1080 l 257 1080 l 257 1029 l 309 1029 l 309 977 l 360 977 l 360 926 l 411 926 l 411 874 l 463 874 l 463 823 l 514 823 l 514 771 l 566 771 l 566 720 l 617 720 l 617 669 l 669 669 l 669 617 l 720 617 l 720 1080 l 874 1080 l 874 0 l 720 0 l 720 360 l 669 360 l 669 411 l 617 411 l 617 463 l 566 463 l 566 514 l 514 514 l 514 566 l 463 566 l 463 617 l 411 617 l 411 669 l 360 669 l 360 720 l 309 720 l 309 771 l 257 771 l 257 0 l 103 0 m 205 1234 l 205 1389 l 257 1389 l 257 1440 l 309 1440 l 309 1492 l 360 1492 l 360 1543 l 514 1543 l 514 1492 l 566 1492 l 566 1440 l 617 1440 l 617 1492 l 669 1492 l 669 1543 l 823 1543 l 823 1389 l 771 1389 l 771 1337 l 720 1337 l 720 1286 l 669 1286 l 669 1234 l 514 1234 l 514 1286 l 463 1286 l 463 1337 l 411 1337 l 411 1286 l 360 1286 l 360 1234 l 205 1234 z "},"Ò":{"ha":926,"x_min":103,"x_max":874,"o":"m 617 154 l 617 205 l 669 205 l 669 257 l 720 257 l 720 823 l 669 823 l 669 874 l 617 874 l 617 926 l 360 926 l 360 874 l 309 874 l 309 823 l 257 823 l 257 257 l 309 257 l 309 205 l 360 205 l 360 154 l 617 154 m 257 0 l 257 51 l 205 51 l 205 103 l 154 103 l 154 154 l 103 154 l 103 926 l 154 926 l 154 977 l 205 977 l 205 1029 l 257 1029 l 257 1080 l 720 1080 l 720 1029 l 771 1029 l 771 977 l 823 977 l 823 926 l 874 926 l 874 154 l 823 154 l 823 103 l 771 103 l 771 51 l 720 51 l 720 0 l 257 0 m 411 1234 l 411 1286 l 360 1286 l 360 1337 l 309 1337 l 309 1389 l 257 1389 l 257 1543 l 411 1543 l 411 1492 l 463 1492 l 463 1440 l 514 1440 l 514 1389 l 566 1389 l 566 1234 l 411 1234 z "},"Ó":{"ha":926,"x_min":103,"x_max":874,"o":"m 617 154 l 617 205 l 669 205 l 669 257 l 720 257 l 720 823 l 669 823 l 669 874 l 617 874 l 617 926 l 360 926 l 360 874 l 309 874 l 309 823 l 257 823 l 257 257 l 309 257 l 309 205 l 360 205 l 360 154 l 617 154 m 257 0 l 257 51 l 205 51 l 205 103 l 154 103 l 154 154 l 103 154 l 103 926 l 154 926 l 154 977 l 205 977 l 205 1029 l 257 1029 l 257 1080 l 720 1080 l 720 1029 l 771 1029 l 771 977 l 823 977 l 823 926 l 874 926 l 874 154 l 823 154 l 823 103 l 771 103 l 771 51 l 720 51 l 720 0 l 257 0 m 411 1234 l 411 1389 l 463 1389 l 463 1440 l 514 1440 l 514 1492 l 566 1492 l 566 1543 l 720 1543 l 720 1389 l 669 1389 l 669 1337 l 617 1337 l 617 1286 l 566 1286 l 566 1234 l 411 1234 z "},"Ô":{"ha":926,"x_min":103,"x_max":874,"o":"m 617 154 l 617 205 l 669 205 l 669 257 l 720 257 l 720 823 l 669 823 l 669 874 l 617 874 l 617 926 l 360 926 l 360 874 l 309 874 l 309 823 l 257 823 l 257 257 l 309 257 l 309 205 l 360 205 l 360 154 l 617 154 m 257 0 l 257 51 l 205 51 l 205 103 l 154 103 l 154 154 l 103 154 l 103 926 l 154 926 l 154 977 l 205 977 l 205 1029 l 257 1029 l 257 1080 l 720 1080 l 720 1029 l 771 1029 l 771 977 l 823 977 l 823 926 l 874 926 l 874 154 l 823 154 l 823 103 l 771 103 l 771 51 l 720 51 l 720 0 l 257 0 m 257 1234 l 257 1389 l 309 1389 l 309 1440 l 360 1440 l 360 1492 l 411 1492 l 411 1543 l 566 1543 l 566 1492 l 617 1492 l 617 1440 l 669 1440 l 669 1389 l 720 1389 l 720 1234 l 566 1234 l 566 1286 l 514 1286 l 514 1337 l 463 1337 l 463 1286 l 411 1286 l 411 1234 l 257 1234 z "},"Õ":{"ha":926,"x_min":103,"x_max":874,"o":"m 617 154 l 617 205 l 669 205 l 669 257 l 720 257 l 720 823 l 669 823 l 669 874 l 617 874 l 617 926 l 360 926 l 360 874 l 309 874 l 309 823 l 257 823 l 257 257 l 309 257 l 309 205 l 360 205 l 360 154 l 617 154 m 257 0 l 257 51 l 205 51 l 205 103 l 154 103 l 154 154 l 103 154 l 103 926 l 154 926 l 154 977 l 205 977 l 205 1029 l 257 1029 l 257 1080 l 720 1080 l 720 1029 l 771 1029 l 771 977 l 823 977 l 823 926 l 874 926 l 874 154 l 823 154 l 823 103 l 771 103 l 771 51 l 720 51 l 720 0 l 257 0 m 205 1234 l 205 1389 l 257 1389 l 257 1440 l 309 1440 l 309 1492 l 360 1492 l 360 1543 l 514 1543 l 514 1492 l 566 1492 l 566 1440 l 617 1440 l 617 1492 l 669 1492 l 669 1543 l 823 1543 l 823 1389 l 771 1389 l 771 1337 l 720 1337 l 720 1286 l 669 1286 l 669 1234 l 514 1234 l 514 1286 l 463 1286 l 463 1337 l 411 1337 l 411 1286 l 360 1286 l 360 1234 l 205 1234 z "},"Ö":{"ha":926,"x_min":103,"x_max":874,"o":"m 617 154 l 617 205 l 669 205 l 669 257 l 720 257 l 720 823 l 669 823 l 669 874 l 617 874 l 617 926 l 360 926 l 360 874 l 309 874 l 309 823 l 257 823 l 257 257 l 309 257 l 309 205 l 360 205 l 360 154 l 617 154 m 257 0 l 257 51 l 205 51 l 205 103 l 154 103 l 154 154 l 103 154 l 103 926 l 154 926 l 154 977 l 205 977 l 205 1029 l 257 1029 l 257 1080 l 720 1080 l 720 1029 l 771 1029 l 771 977 l 823 977 l 823 926 l 874 926 l 874 154 l 823 154 l 823 103 l 771 103 l 771 51 l 720 51 l 720 0 l 257 0 m 257 1234 l 257 1389 l 411 1389 l 411 1234 l 257 1234 m 566 1234 l 566 1389 l 720 1389 l 720 1234 l 566 1234 z "},"×":{"ha":926,"x_min":103,"x_max":874,"o":"m 103 154 l 103 309 l 154 309 l 154 360 l 205 360 l 205 411 l 257 411 l 257 463 l 309 463 l 309 514 l 360 514 l 360 566 l 309 566 l 309 617 l 257 617 l 257 669 l 205 669 l 205 720 l 154 720 l 154 771 l 103 771 l 103 926 l 257 926 l 257 874 l 309 874 l 309 823 l 360 823 l 360 771 l 411 771 l 411 720 l 463 720 l 463 669 l 514 669 l 514 720 l 566 720 l 566 771 l 617 771 l 617 823 l 669 823 l 669 874 l 720 874 l 720 926 l 874 926 l 874 771 l 823 771 l 823 720 l 771 720 l 771 669 l 720 669 l 720 617 l 669 617 l 669 566 l 617 566 l 617 514 l 669 514 l 669 463 l 720 463 l 720 411 l 771 411 l 771 360 l 823 360 l 823 309 l 874 309 l 874 154 l 720 154 l 720 205 l 669 205 l 669 257 l 617 257 l 617 309 l 566 309 l 566 360 l 514 360 l 514 411 l 463 411 l 463 360 l 411 360 l 411 309 l 360 309 l 360 257 l 309 257 l 309 205 l 257 205 l 257 154 l 103 154 z "},"Ø":{"ha":926,"x_min":103,"x_max":874,"o":"m 617 154 l 617 205 l 669 205 l 669 257 l 720 257 l 720 617 l 669 617 l 669 566 l 617 566 l 617 514 l 566 514 l 566 463 l 514 463 l 514 411 l 463 411 l 463 360 l 411 360 l 411 154 l 617 154 m 309 463 l 309 514 l 360 514 l 360 566 l 411 566 l 411 617 l 463 617 l 463 669 l 514 669 l 514 720 l 566 720 l 566 926 l 360 926 l 360 874 l 309 874 l 309 823 l 257 823 l 257 463 l 309 463 m 257 0 l 257 51 l 205 51 l 205 103 l 154 103 l 154 154 l 103 154 l 103 926 l 154 926 l 154 977 l 205 977 l 205 1029 l 257 1029 l 257 1080 l 720 1080 l 720 1029 l 771 1029 l 771 977 l 823 977 l 823 926 l 874 926 l 874 154 l 823 154 l 823 103 l 771 103 l 771 51 l 720 51 l 720 0 l 257 0 z "},"Ù":{"ha":926,"x_min":103,"x_max":874,"o":"m 257 0 l 257 51 l 205 51 l 205 103 l 154 103 l 154 154 l 103 154 l 103 1080 l 257 1080 l 257 257 l 309 257 l 309 205 l 360 205 l 360 154 l 617 154 l 617 205 l 669 205 l 669 257 l 720 257 l 720 1080 l 874 1080 l 874 154 l 823 154 l 823 103 l 771 103 l 771 51 l 720 51 l 720 0 l 257 0 m 411 1234 l 411 1286 l 360 1286 l 360 1337 l 309 1337 l 309 1389 l 257 1389 l 257 1543 l 411 1543 l 411 1492 l 463 1492 l 463 1440 l 514 1440 l 514 1389 l 566 1389 l 566 1234 l 411 1234 z "},"Ú":{"ha":926,"x_min":103,"x_max":874,"o":"m 257 0 l 257 51 l 205 51 l 205 103 l 154 103 l 154 154 l 103 154 l 103 1080 l 257 1080 l 257 257 l 309 257 l 309 205 l 360 205 l 360 154 l 617 154 l 617 205 l 669 205 l 669 257 l 720 257 l 720 1080 l 874 1080 l 874 154 l 823 154 l 823 103 l 771 103 l 771 51 l 720 51 l 720 0 l 257 0 m 411 1234 l 411 1389 l 463 1389 l 463 1440 l 514 1440 l 514 1492 l 566 1492 l 566 1543 l 720 1543 l 720 1389 l 669 1389 l 669 1337 l 617 1337 l 617 1286 l 566 1286 l 566 1234 l 411 1234 z "},"Û":{"ha":926,"x_min":103,"x_max":874,"o":"m 257 0 l 257 51 l 205 51 l 205 103 l 154 103 l 154 154 l 103 154 l 103 1080 l 257 1080 l 257 257 l 309 257 l 309 205 l 360 205 l 360 154 l 617 154 l 617 205 l 669 205 l 669 257 l 720 257 l 720 1080 l 874 1080 l 874 154 l 823 154 l 823 103 l 771 103 l 771 51 l 720 51 l 720 0 l 257 0 m 257 1234 l 257 1389 l 309 1389 l 309 1440 l 360 1440 l 360 1492 l 411 1492 l 411 1543 l 566 1543 l 566 1492 l 617 1492 l 617 1440 l 669 1440 l 669 1389 l 720 1389 l 720 1234 l 566 1234 l 566 1286 l 514 1286 l 514 1337 l 463 1337 l 463 1286 l 411 1286 l 411 1234 l 257 1234 z "},"Ü":{"ha":926,"x_min":103,"x_max":874,"o":"m 257 0 l 257 51 l 205 51 l 205 103 l 154 103 l 154 154 l 103 154 l 103 1080 l 257 1080 l 257 257 l 309 257 l 309 205 l 360 205 l 360 154 l 617 154 l 617 205 l 669 205 l 669 257 l 720 257 l 720 1080 l 874 1080 l 874 154 l 823 154 l 823 103 l 771 103 l 771 51 l 720 51 l 720 0 l 257 0 m 257 1234 l 257 1389 l 411 1389 l 411 1234 l 257 1234 m 566 1234 l 566 1389 l 720 1389 l 720 1234 l 566 1234 z "},"Ý":{"ha":926,"x_min":103,"x_max":874,"o":"m 411 0 l 411 514 l 360 514 l 360 566 l 309 566 l 309 617 l 257 617 l 257 669 l 205 669 l 205 720 l 154 720 l 154 771 l 103 771 l 103 1080 l 257 1080 l 257 874 l 309 874 l 309 823 l 360 823 l 360 771 l 411 771 l 411 720 l 463 720 l 463 669 l 514 669 l 514 720 l 566 720 l 566 771 l 617 771 l 617 823 l 669 823 l 669 874 l 720 874 l 720 1080 l 874 1080 l 874 771 l 823 771 l 823 720 l 771 720 l 771 669 l 720 669 l 720 617 l 669 617 l 669 566 l 617 566 l 617 514 l 566 514 l 566 0 l 411 0 m 411 1234 l 411 1389 l 463 1389 l 463 1440 l 514 1440 l 514 1492 l 566 1492 l 566 1543 l 720 1543 l 720 1389 l 669 1389 l 669 1337 l 617 1337 l 617 1286 l 566 1286 l 566 1234 l 411 1234 z "},"Þ":{"ha":926,"x_min":103,"x_max":874,"o":"m 617 309 l 617 360 l 669 360 l 669 411 l 720 411 l 720 669 l 669 669 l 669 720 l 617 720 l 617 771 l 257 771 l 257 309 l 617 309 m 103 0 l 103 1080 l 257 1080 l 257 926 l 720 926 l 720 874 l 771 874 l 771 823 l 823 823 l 823 771 l 874 771 l 874 309 l 823 309 l 823 257 l 771 257 l 771 205 l 720 205 l 720 154 l 257 154 l 257 0 l 103 0 z "},"ß":{"ha":926,"x_min":103,"x_max":874,"o":"m 103 0 l 103 926 l 154 926 l 154 977 l 205 977 l 205 1029 l 257 1029 l 257 1080 l 566 1080 l 566 1029 l 617 1029 l 617 977 l 669 977 l 669 926 l 720 926 l 720 771 l 669 771 l 669 720 l 617 720 l 617 669 l 669 669 l 669 617 l 720 617 l 720 566 l 771 566 l 771 514 l 823 514 l 823 463 l 874 463 l 874 154 l 823 154 l 823 103 l 771 103 l 771 51 l 720 51 l 720 0 l 514 0 l 514 51 l 463 51 l 463 103 l 411 103 l 411 154 l 360 154 l 360 309 l 514 309 l 514 257 l 566 257 l 566 205 l 669 205 l 669 257 l 720 257 l 720 360 l 669 360 l 669 411 l 617 411 l 617 463 l 566 463 l 566 514 l 514 514 l 514 566 l 463 566 l 463 617 l 411 617 l 411 771 l 463 771 l 463 823 l 514 823 l 514 874 l 463 874 l 463 926 l 360 926 l 360 874 l 309 874 l 309 823 l 257 823 l 257 0 l 103 0 z "},"à":{"ha":926,"x_min":103,"x_max":874,"o":"m 720 154 l 720 309 l 360 309 l 360 257 l 309 257 l 309 205 l 360 205 l 360 154 l 720 154 m 257 0 l 257 51 l 205 51 l 205 103 l 154 103 l 154 154 l 103 154 l 103 309 l 154 309 l 154 360 l 205 360 l 205 411 l 257 411 l 257 463 l 720 463 l 720 514 l 669 514 l 669 566 l 617 566 l 617 617 l 257 617 l 257 771 l 720 771 l 720 720 l 771 720 l 771 669 l 823 669 l 823 617 l 874 617 l 874 0 l 257 0 m 411 926 l 411 977 l 360 977 l 360 1029 l 309 1029 l 309 1080 l 257 1080 l 257 1234 l 411 1234 l 411 1183 l 463 1183 l 463 1132 l 514 1132 l 514 1080 l 566 1080 l 566 926 l 411 926 z "},"á":{"ha":926,"x_min":103,"x_max":874,"o":"m 720 154 l 720 309 l 360 309 l 360 257 l 309 257 l 309 205 l 360 205 l 360 154 l 720 154 m 257 0 l 257 51 l 205 51 l 205 103 l 154 103 l 154 154 l 103 154 l 103 309 l 154 309 l 154 360 l 205 360 l 205 411 l 257 411 l 257 463 l 720 463 l 720 514 l 669 514 l 669 566 l 617 566 l 617 617 l 257 617 l 257 771 l 720 771 l 720 720 l 771 720 l 771 669 l 823 669 l 823 617 l 874 617 l 874 0 l 257 0 m 411 926 l 411 1080 l 463 1080 l 463 1132 l 514 1132 l 514 1183 l 566 1183 l 566 1234 l 720 1234 l 720 1080 l 669 1080 l 669 1029 l 617 1029 l 617 977 l 566 977 l 566 926 l 411 926 z "},"â":{"ha":926,"x_min":103,"x_max":874,"o":"m 720 154 l 720 309 l 360 309 l 360 257 l 309 257 l 309 205 l 360 205 l 360 154 l 720 154 m 257 0 l 257 51 l 205 51 l 205 103 l 154 103 l 154 154 l 103 154 l 103 309 l 154 309 l 154 360 l 205 360 l 205 411 l 257 411 l 257 463 l 720 463 l 720 514 l 669 514 l 669 566 l 617 566 l 617 617 l 257 617 l 257 771 l 720 771 l 720 720 l 771 720 l 771 669 l 823 669 l 823 617 l 874 617 l 874 0 l 257 0 m 257 926 l 257 1080 l 309 1080 l 309 1132 l 360 1132 l 360 1183 l 411 1183 l 411 1234 l 566 1234 l 566 1183 l 617 1183 l 617 1132 l 669 1132 l 669 1080 l 720 1080 l 720 926 l 566 926 l 566 977 l 514 977 l 514 1029 l 463 1029 l 463 977 l 411 977 l 411 926 l 257 926 z "},"ã":{"ha":926,"x_min":103,"x_max":874,"o":"m 720 154 l 720 309 l 360 309 l 360 257 l 309 257 l 309 205 l 360 205 l 360 154 l 720 154 m 257 0 l 257 51 l 205 51 l 205 103 l 154 103 l 154 154 l 103 154 l 103 309 l 154 309 l 154 360 l 205 360 l 205 411 l 257 411 l 257 463 l 720 463 l 720 514 l 669 514 l 669 566 l 617 566 l 617 617 l 257 617 l 257 771 l 720 771 l 720 720 l 771 720 l 771 669 l 823 669 l 823 617 l 874 617 l 874 0 l 257 0 m 205 926 l 205 1080 l 257 1080 l 257 1132 l 309 1132 l 309 1183 l 360 1183 l 360 1234 l 514 1234 l 514 1183 l 566 1183 l 566 1132 l 617 1132 l 617 1183 l 669 1183 l 669 1234 l 823 1234 l 823 1080 l 771 1080 l 771 1029 l 720 1029 l 720 977 l 669 977 l 669 926 l 514 926 l 514 977 l 463 977 l 463 1029 l 411 1029 l 411 977 l 360 977 l 360 926 l 205 926 z "},"ä":{"ha":926,"x_min":103,"x_max":874,"o":"m 720 154 l 720 309 l 360 309 l 360 257 l 309 257 l 309 205 l 360 205 l 360 154 l 720 154 m 257 0 l 257 51 l 205 51 l 205 103 l 154 103 l 154 154 l 103 154 l 103 309 l 154 309 l 154 360 l 205 360 l 205 411 l 257 411 l 257 463 l 720 463 l 720 514 l 669 514 l 669 566 l 617 566 l 617 617 l 257 617 l 257 771 l 720 771 l 720 720 l 771 720 l 771 669 l 823 669 l 823 617 l 874 617 l 874 0 l 257 0 m 257 926 l 257 1080 l 411 1080 l 411 926 l 257 926 m 566 926 l 566 1080 l 720 1080 l 720 926 l 566 926 z "},"å":{"ha":926,"x_min":103,"x_max":874,"o":"m 720 154 l 720 309 l 360 309 l 360 257 l 309 257 l 309 205 l 360 205 l 360 154 l 720 154 m 257 0 l 257 51 l 205 51 l 205 103 l 154 103 l 154 154 l 103 154 l 103 309 l 154 309 l 154 360 l 205 360 l 205 411 l 257 411 l 257 463 l 720 463 l 720 514 l 669 514 l 669 566 l 617 566 l 617 617 l 257 617 l 257 771 l 720 771 l 720 720 l 771 720 l 771 669 l 823 669 l 823 617 l 874 617 l 874 0 l 257 0 m 514 1080 l 514 1132 l 566 1132 l 566 1183 l 514 1183 l 514 1234 l 463 1234 l 463 1183 l 411 1183 l 411 1132 l 463 1132 l 463 1080 l 514 1080 m 411 926 l 411 977 l 360 977 l 360 1029 l 309 1029 l 309 1080 l 257 1080 l 257 1234 l 309 1234 l 309 1286 l 360 1286 l 360 1337 l 411 1337 l 411 1389 l 566 1389 l 566 1337 l 617 1337 l 617 1286 l 669 1286 l 669 1234 l 720 1234 l 720 1080 l 669 1080 l 669 1029 l 617 1029 l 617 977 l 566 977 l 566 926 l 411 926 z "},"æ":{"ha":1543,"x_min":103,"x_max":1492,"o":"m 617 154 l 617 205 l 669 205 l 669 257 l 720 257 l 720 309 l 360 309 l 360 257 l 309 257 l 309 205 l 360 205 l 360 154 l 617 154 m 1337 463 l 1337 514 l 1286 514 l 1286 566 l 1234 566 l 1234 617 l 977 617 l 977 566 l 926 566 l 926 514 l 874 514 l 874 463 l 1337 463 m 257 0 l 257 51 l 205 51 l 205 103 l 154 103 l 154 154 l 103 154 l 103 309 l 154 309 l 154 360 l 205 360 l 205 411 l 257 411 l 257 463 l 720 463 l 720 514 l 669 514 l 669 566 l 617 566 l 617 617 l 257 617 l 257 771 l 720 771 l 720 720 l 771 720 l 771 669 l 823 669 l 823 720 l 874 720 l 874 771 l 1337 771 l 1337 720 l 1389 720 l 1389 669 l 1440 669 l 1440 617 l 1492 617 l 1492 309 l 874 309 l 874 257 l 926 257 l 926 205 l 977 205 l 977 154 l 1492 154 l 1492 0 l 874 0 l 874 51 l 823 51 l 823 103 l 771 103 l 771 51 l 720 51 l 720 0 l 257 0 z "},"ç":{"ha":926,"x_min":103,"x_max":874,"o":"m 257 -309 l 257 -154 l 309 -154 l 309 -103 l 360 -103 l 360 -51 l 411 -51 l 411 0 l 257 0 l 257 51 l 205 51 l 205 103 l 154 103 l 154 154 l 103 154 l 103 617 l 154 617 l 154 669 l 205 669 l 205 720 l 257 720 l 257 771 l 720 771 l 720 720 l 771 720 l 771 669 l 823 669 l 823 617 l 874 617 l 874 463 l 720 463 l 720 514 l 669 514 l 669 566 l 617 566 l 617 617 l 360 617 l 360 566 l 309 566 l 309 514 l 257 514 l 257 257 l 309 257 l 309 205 l 360 205 l 360 154 l 617 154 l 617 205 l 669 205 l 669 257 l 720 257 l 720 309 l 874 309 l 874 154 l 823 154 l 823 103 l 771 103 l 771 51 l 720 51 l 720 0 l 669 0 l 669 -51 l 617 -51 l 617 -103 l 566 -103 l 566 -154 l 514 -154 l 514 -205 l 463 -205 l 463 -257 l 411 -257 l 411 -309 l 257 -309 z "},"è":{"ha":926,"x_min":103,"x_max":874,"o":"m 720 463 l 720 514 l 669 514 l 669 566 l 617 566 l 617 617 l 360 617 l 360 566 l 309 566 l 309 514 l 257 514 l 257 463 l 720 463 m 257 0 l 257 51 l 205 51 l 205 103 l 154 103 l 154 154 l 103 154 l 103 617 l 154 617 l 154 669 l 205 669 l 205 720 l 257 720 l 257 771 l 720 771 l 720 720 l 771 720 l 771 669 l 823 669 l 823 617 l 874 617 l 874 309 l 257 309 l 257 257 l 309 257 l 309 205 l 360 205 l 360 154 l 874 154 l 874 0 l 257 0 m 411 926 l 411 977 l 360 977 l 360 1029 l 309 1029 l 309 1080 l 257 1080 l 257 1234 l 411 1234 l 411 1183 l 463 1183 l 463 1132 l 514 1132 l 514 1080 l 566 1080 l 566 926 l 411 926 z "},"é":{"ha":926,"x_min":103,"x_max":874,"o":"m 720 463 l 720 514 l 669 514 l 669 566 l 617 566 l 617 617 l 360 617 l 360 566 l 309 566 l 309 514 l 257 514 l 257 463 l 720 463 m 257 0 l 257 51 l 205 51 l 205 103 l 154 103 l 154 154 l 103 154 l 103 617 l 154 617 l 154 669 l 205 669 l 205 720 l 257 720 l 257 771 l 720 771 l 720 720 l 771 720 l 771 669 l 823 669 l 823 617 l 874 617 l 874 309 l 257 309 l 257 257 l 309 257 l 309 205 l 360 205 l 360 154 l 874 154 l 874 0 l 257 0 m 411 926 l 411 1080 l 463 1080 l 463 1132 l 514 1132 l 514 1183 l 566 1183 l 566 1234 l 720 1234 l 720 1080 l 669 1080 l 669 1029 l 617 1029 l 617 977 l 566 977 l 566 926 l 411 926 z "},"ê":{"ha":926,"x_min":103,"x_max":874,"o":"m 720 463 l 720 514 l 669 514 l 669 566 l 617 566 l 617 617 l 360 617 l 360 566 l 309 566 l 309 514 l 257 514 l 257 463 l 720 463 m 257 0 l 257 51 l 205 51 l 205 103 l 154 103 l 154 154 l 103 154 l 103 617 l 154 617 l 154 669 l 205 669 l 205 720 l 257 720 l 257 771 l 720 771 l 720 720 l 771 720 l 771 669 l 823 669 l 823 617 l 874 617 l 874 309 l 257 309 l 257 257 l 309 257 l 309 205 l 360 205 l 360 154 l 874 154 l 874 0 l 257 0 m 257 926 l 257 1080 l 309 1080 l 309 1132 l 360 1132 l 360 1183 l 411 1183 l 411 1234 l 566 1234 l 566 1183 l 617 1183 l 617 1132 l 669 1132 l 669 1080 l 720 1080 l 720 926 l 566 926 l 566 977 l 514 977 l 514 1029 l 463 1029 l 463 977 l 411 977 l 411 926 l 257 926 z "},"ë":{"ha":926,"x_min":103,"x_max":874,"o":"m 720 463 l 720 514 l 669 514 l 669 566 l 617 566 l 617 617 l 360 617 l 360 566 l 309 566 l 309 514 l 257 514 l 257 463 l 720 463 m 257 0 l 257 51 l 205 51 l 205 103 l 154 103 l 154 154 l 103 154 l 103 617 l 154 617 l 154 669 l 205 669 l 205 720 l 257 720 l 257 771 l 720 771 l 720 720 l 771 720 l 771 669 l 823 669 l 823 617 l 874 617 l 874 309 l 257 309 l 257 257 l 309 257 l 309 205 l 360 205 l 360 154 l 874 154 l 874 0 l 257 0 m 257 926 l 257 1080 l 411 1080 l 411 926 l 257 926 m 566 926 l 566 1080 l 720 1080 l 720 926 l 566 926 z "},"ì":{"ha":463,"x_min":103,"x_max":411,"o":"m 257 0 l 257 771 l 411 771 l 411 0 l 257 0 m 257 926 l 257 977 l 205 977 l 205 1029 l 154 1029 l 154 1080 l 103 1080 l 103 1234 l 257 1234 l 257 1183 l 309 1183 l 309 1132 l 360 1132 l 360 1080 l 411 1080 l 411 926 l 257 926 z "},"í":{"ha":463,"x_min":103,"x_max":411,"o":"m 103 0 l 103 771 l 257 771 l 257 0 l 103 0 m 103 926 l 103 1080 l 154 1080 l 154 1132 l 205 1132 l 205 1183 l 257 1183 l 257 1234 l 411 1234 l 411 1080 l 360 1080 l 360 1029 l 309 1029 l 309 977 l 257 977 l 257 926 l 103 926 z "},"î":{"ha":617,"x_min":103,"x_max":566,"o":"m 257 0 l 257 771 l 411 771 l 411 0 l 257 0 m 103 926 l 103 1080 l 154 1080 l 154 1132 l 205 1132 l 205 1183 l 257 1183 l 257 1234 l 411 1234 l 411 1183 l 463 1183 l 463 1132 l 514 1132 l 514 1080 l 566 1080 l 566 926 l 411 926 l 411 977 l 360 977 l 360 1029 l 309 1029 l 309 977 l 257 977 l 257 926 l 103 926 z "},"ï":{"ha":617,"x_min":103,"x_max":566,"o":"m 257 0 l 257 771 l 411 771 l 411 0 l 257 0 m 103 926 l 103 1080 l 257 1080 l 257 926 l 103 926 m 411 926 l 411 1080 l 566 1080 l 566 926 l 411 926 z "},"ð":{"ha":1080,"x_min":103,"x_max":1029,"o":"m 617 154 l 617 205 l 669 205 l 669 257 l 720 257 l 720 463 l 360 463 l 360 411 l 309 411 l 309 360 l 257 360 l 257 257 l 309 257 l 309 205 l 360 205 l 360 154 l 617 154 m 257 0 l 257 51 l 205 51 l 205 103 l 154 103 l 154 154 l 103 154 l 103 463 l 154 463 l 154 514 l 205 514 l 205 566 l 257 566 l 257 617 l 720 617 l 720 771 l 411 771 l 411 926 l 720 926 l 720 1080 l 874 1080 l 874 926 l 1029 926 l 1029 771 l 874 771 l 874 154 l 823 154 l 823 103 l 771 103 l 771 51 l 720 51 l 720 0 l 257 0 z "},"ñ":{"ha":926,"x_min":103,"x_max":874,"o":"m 103 0 l 103 771 l 257 771 l 257 617 l 309 617 l 309 669 l 360 669 l 360 720 l 411 720 l 411 771 l 720 771 l 720 720 l 771 720 l 771 669 l 823 669 l 823 617 l 874 617 l 874 0 l 720 0 l 720 514 l 669 514 l 669 566 l 617 566 l 617 617 l 514 617 l 514 566 l 463 566 l 463 514 l 411 514 l 411 463 l 360 463 l 360 411 l 309 411 l 309 360 l 257 360 l 257 0 l 103 0 m 205 926 l 205 1080 l 257 1080 l 257 1132 l 309 1132 l 309 1183 l 360 1183 l 360 1234 l 514 1234 l 514 1183 l 566 1183 l 566 1132 l 617 1132 l 617 1183 l 669 1183 l 669 1234 l 823 1234 l 823 1080 l 771 1080 l 771 1029 l 720 1029 l 720 977 l 669 977 l 669 926 l 514 926 l 514 977 l 463 977 l 463 1029 l 411 1029 l 411 977 l 360 977 l 360 926 l 205 926 z "},"ò":{"ha":926,"x_min":103,"x_max":874,"o":"m 617 154 l 617 205 l 669 205 l 669 257 l 720 257 l 720 514 l 669 514 l 669 566 l 617 566 l 617 617 l 360 617 l 360 566 l 309 566 l 309 514 l 257 514 l 257 257 l 309 257 l 309 205 l 360 205 l 360 154 l 617 154 m 257 0 l 257 51 l 205 51 l 205 103 l 154 103 l 154 154 l 103 154 l 103 617 l 154 617 l 154 669 l 205 669 l 205 720 l 257 720 l 257 771 l 720 771 l 720 720 l 771 720 l 771 669 l 823 669 l 823 617 l 874 617 l 874 154 l 823 154 l 823 103 l 771 103 l 771 51 l 720 51 l 720 0 l 257 0 m 411 926 l 411 977 l 360 977 l 360 1029 l 309 1029 l 309 1080 l 257 1080 l 257 1234 l 411 1234 l 411 1183 l 463 1183 l 463 1132 l 514 1132 l 514 1080 l 566 1080 l 566 926 l 411 926 z "},"ó":{"ha":926,"x_min":103,"x_max":874,"o":"m 617 154 l 617 205 l 669 205 l 669 257 l 720 257 l 720 514 l 669 514 l 669 566 l 617 566 l 617 617 l 360 617 l 360 566 l 309 566 l 309 514 l 257 514 l 257 257 l 309 257 l 309 205 l 360 205 l 360 154 l 617 154 m 257 0 l 257 51 l 205 51 l 205 103 l 154 103 l 154 154 l 103 154 l 103 617 l 154 617 l 154 669 l 205 669 l 205 720 l 257 720 l 257 771 l 720 771 l 720 720 l 771 720 l 771 669 l 823 669 l 823 617 l 874 617 l 874 154 l 823 154 l 823 103 l 771 103 l 771 51 l 720 51 l 720 0 l 257 0 m 411 926 l 411 1080 l 463 1080 l 463 1132 l 514 1132 l 514 1183 l 566 1183 l 566 1234 l 720 1234 l 720 1080 l 669 1080 l 669 1029 l 617 1029 l 617 977 l 566 977 l 566 926 l 411 926 z "},"ô":{"ha":926,"x_min":103,"x_max":874,"o":"m 617 154 l 617 205 l 669 205 l 669 257 l 720 257 l 720 617 l 360 617 l 360 566 l 309 566 l 309 514 l 257 514 l 257 257 l 309 257 l 309 205 l 360 205 l 360 154 l 617 154 m 257 0 l 257 51 l 205 51 l 205 103 l 154 103 l 154 154 l 103 154 l 103 617 l 154 617 l 154 669 l 205 669 l 205 720 l 257 720 l 257 771 l 720 771 l 720 720 l 771 720 l 771 669 l 823 669 l 823 617 l 874 617 l 874 154 l 823 154 l 823 103 l 771 103 l 771 51 l 720 51 l 720 0 l 257 0 m 257 926 l 257 1080 l 309 1080 l 309 1132 l 360 1132 l 360 1183 l 411 1183 l 411 1234 l 566 1234 l 566 1183 l 617 1183 l 617 1132 l 669 1132 l 669 1080 l 720 1080 l 720 926 l 566 926 l 566 977 l 514 977 l 514 1029 l 463 1029 l 463 977 l 411 977 l 411 926 l 257 926 z "},"õ":{"ha":926,"x_min":103,"x_max":874,"o":"m 617 154 l 617 205 l 669 205 l 669 257 l 720 257 l 720 514 l 669 514 l 669 566 l 617 566 l 617 617 l 360 617 l 360 566 l 309 566 l 309 514 l 257 514 l 257 257 l 309 257 l 309 205 l 360 205 l 360 154 l 617 154 m 257 0 l 257 51 l 205 51 l 205 103 l 154 103 l 154 154 l 103 154 l 103 617 l 154 617 l 154 669 l 205 669 l 205 720 l 257 720 l 257 771 l 720 771 l 720 720 l 771 720 l 771 669 l 823 669 l 823 617 l 874 617 l 874 154 l 823 154 l 823 103 l 771 103 l 771 51 l 720 51 l 720 0 l 257 0 m 205 926 l 205 1080 l 257 1080 l 257 1132 l 309 1132 l 309 1183 l 360 1183 l 360 1234 l 514 1234 l 514 1183 l 566 1183 l 566 1132 l 617 1132 l 617 1183 l 669 1183 l 669 1234 l 823 1234 l 823 1080 l 771 1080 l 771 1029 l 720 1029 l 720 977 l 669 977 l 669 926 l 514 926 l 514 977 l 463 977 l 463 1029 l 411 1029 l 411 977 l 360 977 l 360 926 l 205 926 z "},"ö":{"ha":926,"x_min":103,"x_max":874,"o":"m 617 154 l 617 205 l 669 205 l 669 257 l 720 257 l 720 514 l 669 514 l 669 566 l 617 566 l 617 617 l 360 617 l 360 566 l 309 566 l 309 514 l 257 514 l 257 257 l 309 257 l 309 205 l 360 205 l 360 154 l 617 154 m 257 0 l 257 51 l 205 51 l 205 103 l 154 103 l 154 154 l 103 154 l 103 617 l 154 617 l 154 669 l 205 669 l 205 720 l 257 720 l 257 771 l 720 771 l 720 720 l 771 720 l 771 669 l 823 669 l 823 617 l 874 617 l 874 154 l 823 154 l 823 103 l 771 103 l 771 51 l 720 51 l 720 0 l 257 0 m 257 926 l 257 1080 l 411 1080 l 411 926 l 257 926 m 566 926 l 566 1080 l 720 1080 l 720 926 l 566 926 z "},"÷":{"ha":926,"x_min":103,"x_max":874,"o":"m 411 0 l 411 154 l 566 154 l 566 0 l 411 0 m 103 309 l 103 463 l 874 463 l 874 309 l 103 309 m 411 617 l 411 771 l 566 771 l 566 617 l 411 617 z "},"ø":{"ha":926,"x_min":103,"x_max":874,"o":"m 617 154 l 617 205 l 669 205 l 669 257 l 720 257 l 720 463 l 669 463 l 669 411 l 617 411 l 617 360 l 566 360 l 566 309 l 514 309 l 514 257 l 463 257 l 463 205 l 411 205 l 411 154 l 617 154 m 309 309 l 309 360 l 360 360 l 360 411 l 411 411 l 411 463 l 463 463 l 463 514 l 514 514 l 514 566 l 566 566 l 566 617 l 360 617 l 360 566 l 309 566 l 309 514 l 257 514 l 257 309 l 309 309 m 103 0 l 103 154 l 154 154 l 154 205 l 205 205 l 205 257 l 154 257 l 154 309 l 103 309 l 103 617 l 154 617 l 154 669 l 205 669 l 205 720 l 257 720 l 257 771 l 566 771 l 566 720 l 617 720 l 617 669 l 669 669 l 669 720 l 720 720 l 720 771 l 874 771 l 874 617 l 823 617 l 823 566 l 771 566 l 771 514 l 823 514 l 823 463 l 874 463 l 874 154 l 823 154 l 823 103 l 771 103 l 771 51 l 720 51 l 720 0 l 411 0 l 411 51 l 360 51 l 360 103 l 309 103 l 309 51 l 257 51 l 257 0 l 103 0 z "},"ù":{"ha":926,"x_min":103,"x_max":874,"o":"m 257 0 l 257 51 l 205 51 l 205 103 l 154 103 l 154 154 l 103 154 l 103 771 l 257 771 l 257 257 l 309 257 l 309 205 l 360 205 l 360 154 l 463 154 l 463 205 l 514 205 l 514 257 l 566 257 l 566 309 l 617 309 l 617 360 l 669 360 l 669 411 l 720 411 l 720 771 l 874 771 l 874 0 l 720 0 l 720 154 l 669 154 l 669 103 l 617 103 l 617 51 l 566 51 l 566 0 l 257 0 m 411 926 l 411 977 l 360 977 l 360 1029 l 309 1029 l 309 1080 l 257 1080 l 257 1234 l 411 1234 l 411 1183 l 463 1183 l 463 1132 l 514 1132 l 514 1080 l 566 1080 l 566 926 l 411 926 z "},"ú":{"ha":926,"x_min":103,"x_max":874,"o":"m 257 0 l 257 51 l 205 51 l 205 103 l 154 103 l 154 154 l 103 154 l 103 771 l 257 771 l 257 257 l 309 257 l 309 205 l 360 205 l 360 154 l 463 154 l 463 205 l 514 205 l 514 257 l 566 257 l 566 309 l 617 309 l 617 360 l 669 360 l 669 411 l 720 411 l 720 771 l 874 771 l 874 0 l 720 0 l 720 154 l 669 154 l 669 103 l 617 103 l 617 51 l 566 51 l 566 0 l 257 0 m 411 926 l 411 1080 l 463 1080 l 463 1132 l 514 1132 l 514 1183 l 566 1183 l 566 1234 l 720 1234 l 720 1080 l 669 1080 l 669 1029 l 617 1029 l 617 977 l 566 977 l 566 926 l 411 926 z "},"û":{"ha":926,"x_min":103,"x_max":874,"o":"m 257 0 l 257 51 l 205 51 l 205 103 l 154 103 l 154 154 l 103 154 l 103 771 l 257 771 l 257 257 l 309 257 l 309 205 l 360 205 l 360 154 l 463 154 l 463 205 l 514 205 l 514 257 l 566 257 l 566 309 l 617 309 l 617 360 l 669 360 l 669 411 l 720 411 l 720 771 l 874 771 l 874 0 l 720 0 l 720 154 l 669 154 l 669 103 l 617 103 l 617 51 l 566 51 l 566 0 l 257 0 m 257 926 l 257 1080 l 309 1080 l 309 1132 l 360 1132 l 360 1183 l 411 1183 l 411 1234 l 566 1234 l 566 1183 l 617 1183 l 617 1132 l 669 1132 l 669 1080 l 720 1080 l 720 926 l 566 926 l 566 977 l 514 977 l 514 1029 l 463 1029 l 463 977 l 411 977 l 411 926 l 257 926 z "},"ü":{"ha":926,"x_min":103,"x_max":874,"o":"m 257 0 l 257 51 l 205 51 l 205 103 l 154 103 l 154 154 l 103 154 l 103 771 l 257 771 l 257 257 l 309 257 l 309 205 l 360 205 l 360 154 l 463 154 l 463 205 l 514 205 l 514 257 l 566 257 l 566 309 l 617 309 l 617 360 l 669 360 l 669 411 l 720 411 l 720 771 l 874 771 l 874 0 l 720 0 l 720 154 l 669 154 l 669 103 l 617 103 l 617 51 l 566 51 l 566 0 l 257 0 m 257 926 l 257 1080 l 411 1080 l 411 926 l 257 926 m 566 926 l 566 1080 l 720 1080 l 720 926 l 566 926 z "},"ý":{"ha":926,"x_min":103,"x_max":874,"o":"m 257 -309 l 257 -154 l 617 -154 l 617 -103 l 669 -103 l 669 -51 l 720 -51 l 720 154 l 257 154 l 257 205 l 205 205 l 205 257 l 154 257 l 154 309 l 103 309 l 103 771 l 257 771 l 257 411 l 309 411 l 309 360 l 360 360 l 360 309 l 720 309 l 720 771 l 874 771 l 874 -154 l 823 -154 l 823 -205 l 771 -205 l 771 -257 l 720 -257 l 720 -309 l 257 -309 m 411 926 l 411 1080 l 463 1080 l 463 1132 l 514 1132 l 514 1183 l 566 1183 l 566 1234 l 720 1234 l 720 1080 l 669 1080 l 669 1029 l 617 1029 l 617 977 l 566 977 l 566 926 l 411 926 z "},"þ":{"ha":926,"x_min":103,"x_max":874,"o":"m 617 154 l 617 205 l 669 205 l 669 257 l 720 257 l 720 514 l 669 514 l 669 566 l 617 566 l 617 617 l 257 617 l 257 154 l 617 154 m 103 -309 l 103 1080 l 257 1080 l 257 771 l 720 771 l 720 720 l 771 720 l 771 669 l 823 669 l 823 617 l 874 617 l 874 154 l 823 154 l 823 103 l 771 103 l 771 51 l 720 51 l 720 0 l 257 0 l 257 -309 l 103 -309 z "},"ÿ":{"ha":926,"x_min":103,"x_max":874,"o":"m 257 -309 l 257 -154 l 617 -154 l 617 -103 l 669 -103 l 669 -51 l 720 -51 l 720 154 l 257 154 l 257 205 l 205 205 l 205 257 l 154 257 l 154 309 l 103 309 l 103 771 l 257 771 l 257 411 l 309 411 l 309 360 l 360 360 l 360 309 l 720 309 l 720 771 l 874 771 l 874 -154 l 823 -154 l 823 -205 l 771 -205 l 771 -257 l 720 -257 l 720 -309 l 257 -309 m 257 926 l 257 1080 l 411 1080 l 411 926 l 257 926 m 566 926 l 566 1080 l 720 1080 l 720 926 l 566 926 z "},"Ÿ":{"ha":926,"x_min":103,"x_max":874,"o":"m 411 0 l 411 514 l 360 514 l 360 566 l 309 566 l 309 617 l 257 617 l 257 669 l 205 669 l 205 720 l 154 720 l 154 771 l 103 771 l 103 1080 l 257 1080 l 257 874 l 309 874 l 309 823 l 360 823 l 360 771 l 411 771 l 411 720 l 463 720 l 463 669 l 514 669 l 514 720 l 566 720 l 566 771 l 617 771 l 617 823 l 669 823 l 669 874 l 720 874 l 720 1080 l 874 1080 l 874 771 l 823 771 l 823 720 l 771 720 l 771 669 l 720 669 l 720 617 l 669 617 l 669 566 l 617 566 l 617 514 l 566 514 l 566 0 l 411 0 m 257 1234 l 257 1389 l 411 1389 l 411 1234 l 257 1234 m 566 1234 l 566 1389 l 720 1389 l 720 1234 l 566 1234 z "},"Ё":{"ha":926,"x_min":103,"x_max":874,"o":"m 257 0 l 257 51 l 205 51 l 205 103 l 154 103 l 154 154 l 103 154 l 103 926 l 154 926 l 154 977 l 205 977 l 205 1029 l 257 1029 l 257 1080 l 874 1080 l 874 926 l 360 926 l 360 874 l 309 874 l 309 823 l 257 823 l 257 617 l 720 617 l 720 463 l 257 463 l 257 257 l 309 257 l 309 205 l 360 205 l 360 154 l 874 154 l 874 0 l 257 0 m 257 1234 l 257 1389 l 411 1389 l 411 1234 l 257 1234 m 617 1234 l 617 1389 l 771 1389 l 771 1234 l 617 1234 z "},"Є":{"ha":926,"x_min":103,"x_max":874,"o":"m 257 0 l 257 51 l 205 51 l 205 103 l 154 103 l 154 154 l 103 154 l 103 926 l 154 926 l 154 977 l 205 977 l 205 1029 l 257 1029 l 257 1080 l 720 1080 l 720 1029 l 771 1029 l 771 977 l 823 977 l 823 926 l 874 926 l 874 771 l 720 771 l 720 823 l 669 823 l 669 874 l 617 874 l 617 926 l 360 926 l 360 874 l 309 874 l 309 823 l 257 823 l 257 617 l 566 617 l 566 463 l 257 463 l 257 257 l 309 257 l 309 205 l 360 205 l 360 154 l 617 154 l 617 205 l 669 205 l 669 257 l 720 257 l 720 309 l 874 309 l 874 154 l 823 154 l 823 103 l 771 103 l 771 51 l 720 51 l 720 0 l 257 0 z "},"І":{"ha":926,"x_min":103,"x_max":874,"o":"m 103 0 l 103 154 l 411 154 l 411 926 l 103 926 l 103 1080 l 874 1080 l 874 926 l 566 926 l 566 154 l 874 154 l 874 0 l 103 0 z "},"Ї":{"ha":926,"x_min":103,"x_max":874,"o":"m 103 0 l 103 154 l 411 154 l 411 926 l 103 926 l 103 1080 l 874 1080 l 874 926 l 566 926 l 566 154 l 874 154 l 874 0 l 103 0 m 257 1234 l 257 1389 l 411 1389 l 411 1234 l 257 1234 m 566 1234 l 566 1389 l 720 1389 l 720 1234 l 566 1234 z "},"А":{"ha":926,"x_min":103,"x_max":874,"o":"m 720 617 l 720 823 l 669 823 l 669 874 l 617 874 l 617 926 l 360 926 l 360 874 l 309 874 l 309 823 l 257 823 l 257 617 l 720 617 m 103 0 l 103 926 l 154 926 l 154 977 l 205 977 l 205 1029 l 257 1029 l 257 1080 l 720 1080 l 720 1029 l 771 1029 l 771 977 l 823 977 l 823 926 l 874 926 l 874 0 l 720 0 l 720 463 l 257 463 l 257 0 l 103 0 z "},"Б":{"ha":926,"x_min":103,"x_max":874,"o":"m 617 154 l 617 205 l 669 205 l 669 257 l 720 257 l 720 360 l 669 360 l 669 411 l 617 411 l 617 463 l 257 463 l 257 154 l 617 154 m 103 0 l 103 1080 l 720 1080 l 720 926 l 257 926 l 257 617 l 720 617 l 720 566 l 771 566 l 771 514 l 823 514 l 823 463 l 874 463 l 874 154 l 823 154 l 823 103 l 771 103 l 771 51 l 720 51 l 720 0 l 103 0 z "},"В":{"ha":926,"x_min":103,"x_max":874,"o":"m 617 154 l 617 205 l 669 205 l 669 257 l 720 257 l 720 360 l 669 360 l 669 411 l 617 411 l 617 463 l 257 463 l 257 154 l 617 154 m 617 617 l 617 669 l 669 669 l 669 720 l 720 720 l 720 823 l 669 823 l 669 874 l 617 874 l 617 926 l 257 926 l 257 617 l 617 617 m 103 0 l 103 1080 l 720 1080 l 720 1029 l 771 1029 l 771 977 l 823 977 l 823 926 l 874 926 l 874 617 l 823 617 l 823 566 l 771 566 l 771 514 l 823 514 l 823 463 l 874 463 l 874 154 l 823 154 l 823 103 l 771 103 l 771 51 l 720 51 l 720 0 l 103 0 z "},"Г":{"ha":771,"x_min":103,"x_max":720,"o":"m 103 0 l 103 1080 l 720 1080 l 720 926 l 257 926 l 257 0 l 103 0 z "},"Д":{"ha":1080,"x_min":103,"x_max":1029,"o":"m 720 154 l 720 926 l 566 926 l 566 617 l 514 617 l 514 566 l 463 566 l 463 514 l 411 514 l 411 154 l 720 154 m 103 -154 l 103 154 l 257 154 l 257 617 l 309 617 l 309 669 l 360 669 l 360 720 l 411 720 l 411 1080 l 874 1080 l 874 154 l 1029 154 l 1029 -154 l 874 -154 l 874 0 l 257 0 l 257 -154 l 103 -154 z "},"Е":{"ha":926,"x_min":103,"x_max":874,"o":"m 257 0 l 257 51 l 205 51 l 205 103 l 154 103 l 154 154 l 103 154 l 103 926 l 154 926 l 154 977 l 205 977 l 205 1029 l 257 1029 l 257 1080 l 874 1080 l 874 926 l 360 926 l 360 874 l 309 874 l 309 823 l 257 823 l 257 617 l 720 617 l 720 463 l 257 463 l 257 257 l 309 257 l 309 205 l 360 205 l 360 154 l 874 154 l 874 0 l 257 0 z "},"Ж":{"ha":1234,"x_min":103,"x_max":1183,"o":"m 103 0 l 103 309 l 154 309 l 154 360 l 205 360 l 205 411 l 257 411 l 257 463 l 309 463 l 309 514 l 360 514 l 360 566 l 309 566 l 309 617 l 257 617 l 257 669 l 205 669 l 205 720 l 154 720 l 154 771 l 103 771 l 103 1080 l 257 1080 l 257 874 l 309 874 l 309 823 l 360 823 l 360 771 l 411 771 l 411 720 l 463 720 l 463 669 l 514 669 l 514 617 l 566 617 l 566 1080 l 720 1080 l 720 617 l 771 617 l 771 669 l 823 669 l 823 720 l 874 720 l 874 771 l 926 771 l 926 823 l 977 823 l 977 874 l 1029 874 l 1029 1080 l 1183 1080 l 1183 771 l 1132 771 l 1132 720 l 1080 720 l 1080 669 l 1029 669 l 1029 617 l 977 617 l 977 566 l 926 566 l 926 514 l 977 514 l 977 463 l 1029 463 l 1029 411 l 1080 411 l 1080 360 l 1132 360 l 1132 309 l 1183 309 l 1183 0 l 1029 0 l 1029 205 l 977 205 l 977 257 l 926 257 l 926 309 l 874 309 l 874 360 l 823 360 l 823 411 l 771 411 l 771 463 l 720 463 l 720 0 l 566 0 l 566 463 l 514 463 l 514 411 l 463 411 l 463 360 l 411 360 l 411 309 l 360 309 l 360 257 l 309 257 l 309 205 l 257 205 l 257 0 l 103 0 z "},"З":{"ha":926,"x_min":103,"x_max":874,"o":"m 257 0 l 257 51 l 205 51 l 205 103 l 154 103 l 154 154 l 103 154 l 103 309 l 257 309 l 257 257 l 309 257 l 309 205 l 360 205 l 360 154 l 617 154 l 617 205 l 669 205 l 669 257 l 720 257 l 720 360 l 669 360 l 669 411 l 617 411 l 617 463 l 411 463 l 411 617 l 617 617 l 617 669 l 669 669 l 669 720 l 720 720 l 720 823 l 669 823 l 669 874 l 617 874 l 617 926 l 360 926 l 360 874 l 309 874 l 309 823 l 257 823 l 257 771 l 103 771 l 103 926 l 154 926 l 154 977 l 205 977 l 205 1029 l 257 1029 l 257 1080 l 720 1080 l 720 1029 l 771 1029 l 771 977 l 823 977 l 823 926 l 874 926 l 874 617 l 823 617 l 823 566 l 771 566 l 771 514 l 823 514 l 823 463 l 874 463 l 874 154 l 823 154 l 823 103 l 771 103 l 771 51 l 720 51 l 720 0 l 257 0 z "},"И":{"ha":926,"x_min":103,"x_max":874,"o":"m 103 0 l 103 1080 l 257 1080 l 257 617 l 309 617 l 309 669 l 360 669 l 360 720 l 411 720 l 411 771 l 463 771 l 463 823 l 514 823 l 514 874 l 566 874 l 566 926 l 617 926 l 617 977 l 669 977 l 669 1029 l 720 1029 l 720 1080 l 874 1080 l 874 0 l 720 0 l 720 771 l 669 771 l 669 720 l 617 720 l 617 669 l 566 669 l 566 617 l 514 617 l 514 566 l 463 566 l 463 514 l 411 514 l 411 463 l 360 463 l 360 411 l 309 411 l 309 360 l 257 360 l 257 0 l 103 0 z "},"Й":{"ha":926,"x_min":103,"x_max":874,"o":"m 103 0 l 103 1080 l 257 1080 l 257 617 l 309 617 l 309 669 l 360 669 l 360 720 l 411 720 l 411 771 l 463 771 l 463 823 l 514 823 l 514 874 l 566 874 l 566 926 l 617 926 l 617 977 l 669 977 l 669 1029 l 720 1029 l 720 1080 l 874 1080 l 874 0 l 720 0 l 720 771 l 669 771 l 669 720 l 617 720 l 617 669 l 566 669 l 566 617 l 514 617 l 514 566 l 463 566 l 463 514 l 411 514 l 411 463 l 360 463 l 360 411 l 309 411 l 309 360 l 257 360 l 257 0 l 103 0 m 360 1234 l 360 1286 l 309 1286 l 309 1337 l 257 1337 l 257 1389 l 205 1389 l 205 1543 l 360 1543 l 360 1492 l 411 1492 l 411 1440 l 463 1440 l 463 1389 l 566 1389 l 566 1440 l 617 1440 l 617 1492 l 669 1492 l 669 1543 l 823 1543 l 823 1389 l 771 1389 l 771 1337 l 720 1337 l 720 1286 l 669 1286 l 669 1234 l 360 1234 z "},"К":{"ha":926,"x_min":103,"x_max":874,"o":"m 103 0 l 103 1080 l 257 1080 l 257 617 l 309 617 l 309 669 l 360 669 l 360 720 l 411 720 l 411 771 l 463 771 l 463 823 l 514 823 l 514 874 l 566 874 l 566 926 l 617 926 l 617 977 l 669 977 l 669 1029 l 720 1029 l 720 1080 l 874 1080 l 874 926 l 823 926 l 823 874 l 771 874 l 771 823 l 720 823 l 720 771 l 669 771 l 669 720 l 617 720 l 617 669 l 566 669 l 566 617 l 514 617 l 514 566 l 463 566 l 463 514 l 514 514 l 514 463 l 566 463 l 566 411 l 617 411 l 617 360 l 669 360 l 669 309 l 720 309 l 720 257 l 771 257 l 771 205 l 823 205 l 823 154 l 874 154 l 874 0 l 720 0 l 720 51 l 669 51 l 669 103 l 617 103 l 617 154 l 566 154 l 566 205 l 514 205 l 514 257 l 463 257 l 463 309 l 411 309 l 411 360 l 360 360 l 360 411 l 309 411 l 309 463 l 257 463 l 257 0 l 103 0 z "},"Л":{"ha":926,"x_min":103,"x_max":874,"o":"m 103 0 l 103 154 l 154 154 l 154 205 l 205 205 l 205 257 l 257 257 l 257 1080 l 874 1080 l 874 0 l 720 0 l 720 926 l 411 926 l 411 154 l 360 154 l 360 103 l 309 103 l 309 51 l 257 51 l 257 0 l 103 0 z "},"М":{"ha":926,"x_min":103,"x_max":874,"o":"m 103 0 l 103 1080 l 257 1080 l 257 1029 l 309 1029 l 309 977 l 360 977 l 360 926 l 411 926 l 411 874 l 463 874 l 463 823 l 514 823 l 514 874 l 566 874 l 566 926 l 617 926 l 617 977 l 669 977 l 669 1029 l 720 1029 l 720 1080 l 874 1080 l 874 0 l 720 0 l 720 771 l 669 771 l 669 720 l 617 720 l 617 669 l 566 669 l 566 617 l 411 617 l 411 669 l 360 669 l 360 720 l 309 720 l 309 771 l 257 771 l 257 0 l 103 0 z "},"Н":{"ha":926,"x_min":103,"x_max":874,"o":"m 103 0 l 103 1080 l 257 1080 l 257 617 l 720 617 l 720 1080 l 874 1080 l 874 0 l 720 0 l 720 463 l 257 463 l 257 0 l 103 0 z "},"О":{"ha":926,"x_min":103,"x_max":874,"o":"m 617 154 l 617 205 l 669 205 l 669 257 l 720 257 l 720 823 l 669 823 l 669 874 l 617 874 l 617 926 l 360 926 l 360 874 l 309 874 l 309 823 l 257 823 l 257 257 l 309 257 l 309 205 l 360 205 l 360 154 l 617 154 m 257 0 l 257 51 l 205 51 l 205 103 l 154 103 l 154 154 l 103 154 l 103 926 l 154 926 l 154 977 l 205 977 l 205 1029 l 257 1029 l 257 1080 l 720 1080 l 720 1029 l 771 1029 l 771 977 l 823 977 l 823 926 l 874 926 l 874 154 l 823 154 l 823 103 l 771 103 l 771 51 l 720 51 l 720 0 l 257 0 z "},"П":{"ha":926,"x_min":103,"x_max":874,"o":"m 103 0 l 103 1080 l 874 1080 l 874 0 l 720 0 l 720 926 l 257 926 l 257 0 l 103 0 z "},"Р":{"ha":926,"x_min":103,"x_max":874,"o":"m 617 617 l 617 669 l 669 669 l 669 720 l 720 720 l 720 823 l 669 823 l 669 874 l 617 874 l 617 926 l 257 926 l 257 617 l 617 617 m 103 0 l 103 1080 l 720 1080 l 720 1029 l 771 1029 l 771 977 l 823 977 l 823 926 l 874 926 l 874 617 l 823 617 l 823 566 l 771 566 l 771 514 l 720 514 l 720 463 l 257 463 l 257 0 l 103 0 z "},"С":{"ha":926,"x_min":103,"x_max":874,"o":"m 257 0 l 257 51 l 205 51 l 205 103 l 154 103 l 154 154 l 103 154 l 103 926 l 154 926 l 154 977 l 205 977 l 205 1029 l 257 1029 l 257 1080 l 720 1080 l 720 1029 l 771 1029 l 771 977 l 823 977 l 823 926 l 874 926 l 874 771 l 720 771 l 720 823 l 669 823 l 669 874 l 617 874 l 617 926 l 360 926 l 360 874 l 309 874 l 309 823 l 257 823 l 257 257 l 309 257 l 309 205 l 360 205 l 360 154 l 617 154 l 617 205 l 669 205 l 669 257 l 720 257 l 720 309 l 874 309 l 874 154 l 823 154 l 823 103 l 771 103 l 771 51 l 720 51 l 720 0 l 257 0 z "},"Т":{"ha":926,"x_min":103,"x_max":874,"o":"m 411 0 l 411 926 l 103 926 l 103 1080 l 874 1080 l 874 926 l 566 926 l 566 0 l 411 0 z "},"У":{"ha":926,"x_min":103,"x_max":874,"o":"m 103 0 l 103 154 l 617 154 l 617 205 l 669 205 l 669 257 l 720 257 l 720 463 l 257 463 l 257 514 l 205 514 l 205 566 l 154 566 l 154 617 l 103 617 l 103 1080 l 257 1080 l 257 720 l 309 720 l 309 669 l 360 669 l 360 617 l 720 617 l 720 1080 l 874 1080 l 874 154 l 823 154 l 823 103 l 771 103 l 771 51 l 720 51 l 720 0 l 103 0 z "},"Ф":{"ha":1234,"x_min":103,"x_max":1183,"o":"m 566 309 l 566 771 l 360 771 l 360 720 l 309 720 l 309 669 l 257 669 l 257 411 l 309 411 l 309 360 l 360 360 l 360 309 l 566 309 m 926 309 l 926 360 l 977 360 l 977 411 l 1029 411 l 1029 669 l 977 669 l 977 720 l 926 720 l 926 771 l 720 771 l 720 309 l 926 309 m 566 0 l 566 154 l 257 154 l 257 205 l 205 205 l 205 257 l 154 257 l 154 309 l 103 309 l 103 771 l 154 771 l 154 823 l 205 823 l 205 874 l 257 874 l 257 926 l 566 926 l 566 1080 l 720 1080 l 720 926 l 1029 926 l 1029 874 l 1080 874 l 1080 823 l 1132 823 l 1132 771 l 1183 771 l 1183 309 l 1132 309 l 1132 257 l 1080 257 l 1080 205 l 1029 205 l 1029 154 l 720 154 l 720 0 l 566 0 z "},"Х":{"ha":926,"x_min":103,"x_max":874,"o":"m 103 0 l 103 463 l 154 463 l 154 514 l 205 514 l 205 566 l 257 566 l 257 617 l 309 617 l 309 669 l 360 669 l 360 720 l 309 720 l 309 771 l 257 771 l 257 823 l 205 823 l 205 874 l 154 874 l 154 926 l 103 926 l 103 1080 l 257 1080 l 257 1029 l 309 1029 l 309 977 l 360 977 l 360 926 l 411 926 l 411 874 l 463 874 l 463 823 l 514 823 l 514 874 l 566 874 l 566 926 l 617 926 l 617 977 l 669 977 l 669 1029 l 720 1029 l 720 1080 l 874 1080 l 874 926 l 823 926 l 823 874 l 771 874 l 771 823 l 720 823 l 720 771 l 669 771 l 669 720 l 617 720 l 617 669 l 669 669 l 669 617 l 720 617 l 720 566 l 771 566 l 771 514 l 823 514 l 823 463 l 874 463 l 874 0 l 720 0 l 720 360 l 669 360 l 669 411 l 617 411 l 617 463 l 566 463 l 566 514 l 514 514 l 514 566 l 463 566 l 463 514 l 411 514 l 411 463 l 360 463 l 360 411 l 309 411 l 309 360 l 257 360 l 257 0 l 103 0 z "},"Ц":{"ha":1080,"x_min":103,"x_max":1029,"o":"m 874 -154 l 874 0 l 103 0 l 103 1080 l 257 1080 l 257 154 l 720 154 l 720 1080 l 874 1080 l 874 154 l 1029 154 l 1029 -154 l 874 -154 z "},"Ч":{"ha":926,"x_min":103,"x_max":874,"o":"m 720 0 l 720 463 l 257 463 l 257 514 l 205 514 l 205 566 l 154 566 l 154 617 l 103 617 l 103 1080 l 257 1080 l 257 720 l 309 720 l 309 669 l 360 669 l 360 617 l 720 617 l 720 1080 l 874 1080 l 874 0 l 720 0 z "},"Ш":{"ha":1132,"x_min":103,"x_max":1080,"o":"m 103 0 l 103 1080 l 257 1080 l 257 154 l 514 154 l 514 1080 l 669 1080 l 669 154 l 926 154 l 926 1080 l 1080 1080 l 1080 0 l 103 0 z "},"Щ":{"ha":1286,"x_min":103,"x_max":1234,"o":"m 1080 -154 l 1080 0 l 103 0 l 103 1080 l 257 1080 l 257 154 l 514 154 l 514 1080 l 669 1080 l 669 154 l 926 154 l 926 1080 l 1080 1080 l 1080 154 l 1234 154 l 1234 -154 l 1080 -154 z "},"Ъ":{"ha":1080,"x_min":103,"x_max":1029,"o":"m 771 154 l 771 205 l 823 205 l 823 257 l 874 257 l 874 360 l 823 360 l 823 411 l 771 411 l 771 463 l 411 463 l 411 154 l 771 154 m 257 0 l 257 926 l 103 926 l 103 1080 l 411 1080 l 411 617 l 874 617 l 874 566 l 926 566 l 926 514 l 977 514 l 977 463 l 1029 463 l 1029 154 l 977 154 l 977 103 l 926 103 l 926 51 l 874 51 l 874 0 l 257 0 z "},"Ы":{"ha":1234,"x_min":103,"x_max":1183,"o":"m 617 154 l 617 205 l 669 205 l 669 257 l 720 257 l 720 360 l 669 360 l 669 411 l 617 411 l 617 463 l 257 463 l 257 154 l 617 154 m 103 0 l 103 1080 l 257 1080 l 257 617 l 720 617 l 720 566 l 771 566 l 771 514 l 823 514 l 823 463 l 874 463 l 874 154 l 823 154 l 823 103 l 771 103 l 771 51 l 720 51 l 720 0 l 103 0 m 1029 0 l 1029 1080 l 1183 1080 l 1183 0 l 1029 0 z "},"Ь":{"ha":926,"x_min":103,"x_max":874,"o":"m 617 154 l 617 205 l 669 205 l 669 257 l 720 257 l 720 360 l 669 360 l 669 411 l 617 411 l 617 463 l 257 463 l 257 154 l 617 154 m 103 0 l 103 1080 l 257 1080 l 257 617 l 720 617 l 720 566 l 771 566 l 771 514 l 823 514 l 823 463 l 874 463 l 874 154 l 823 154 l 823 103 l 771 103 l 771 51 l 720 51 l 720 0 l 103 0 z "},"Э":{"ha":926,"x_min":103,"x_max":874,"o":"m 257 0 l 257 51 l 205 51 l 205 103 l 154 103 l 154 154 l 103 154 l 103 309 l 257 309 l 257 257 l 309 257 l 309 205 l 360 205 l 360 154 l 617 154 l 617 205 l 669 205 l 669 257 l 720 257 l 720 463 l 411 463 l 411 617 l 720 617 l 720 823 l 669 823 l 669 874 l 617 874 l 617 926 l 360 926 l 360 874 l 309 874 l 309 823 l 257 823 l 257 771 l 103 771 l 103 926 l 154 926 l 154 977 l 205 977 l 205 1029 l 257 1029 l 257 1080 l 720 1080 l 720 1029 l 771 1029 l 771 977 l 823 977 l 823 926 l 874 926 l 874 154 l 823 154 l 823 103 l 771 103 l 771 51 l 720 51 l 720 0 l 257 0 z "},"Ю":{"ha":1234,"x_min":103,"x_max":1183,"o":"m 926 154 l 926 205 l 977 205 l 977 257 l 1029 257 l 1029 823 l 977 823 l 977 874 l 926 874 l 926 926 l 669 926 l 669 874 l 617 874 l 617 823 l 566 823 l 566 257 l 617 257 l 617 205 l 669 205 l 669 154 l 926 154 m 103 0 l 103 1080 l 257 1080 l 257 617 l 411 617 l 411 926 l 463 926 l 463 977 l 514 977 l 514 1029 l 566 1029 l 566 1080 l 1029 1080 l 1029 1029 l 1080 1029 l 1080 977 l 1132 977 l 1132 926 l 1183 926 l 1183 154 l 1132 154 l 1132 103 l 1080 103 l 1080 51 l 1029 51 l 1029 0 l 566 0 l 566 51 l 514 51 l 514 103 l 463 103 l 463 154 l 411 154 l 411 463 l 257 463 l 257 0 l 103 0 z "},"Я":{"ha":926,"x_min":103,"x_max":874,"o":"m 720 617 l 720 926 l 360 926 l 360 874 l 309 874 l 309 823 l 257 823 l 257 720 l 309 720 l 309 669 l 360 669 l 360 617 l 720 617 m 103 0 l 103 154 l 154 154 l 154 205 l 205 205 l 205 257 l 257 257 l 257 309 l 309 309 l 309 360 l 360 360 l 360 411 l 411 411 l 411 463 l 257 463 l 257 514 l 205 514 l 205 566 l 154 566 l 154 617 l 103 617 l 103 926 l 154 926 l 154 977 l 205 977 l 205 1029 l 257 1029 l 257 1080 l 874 1080 l 874 0 l 720 0 l 720 463 l 669 463 l 669 411 l 617 411 l 617 360 l 566 360 l 566 309 l 514 309 l 514 257 l 463 257 l 463 205 l 411 205 l 411 154 l 360 154 l 360 103 l 309 103 l 309 51 l 257 51 l 257 0 l 103 0 z "},"а":{"ha":926,"x_min":103,"x_max":874,"o":"m 720 154 l 720 309 l 360 309 l 360 257 l 309 257 l 309 205 l 360 205 l 360 154 l 720 154 m 257 0 l 257 51 l 205 51 l 205 103 l 154 103 l 154 154 l 103 154 l 103 309 l 154 309 l 154 360 l 205 360 l 205 411 l 257 411 l 257 463 l 720 463 l 720 514 l 669 514 l 669 566 l 617 566 l 617 617 l 257 617 l 257 771 l 720 771 l 720 720 l 771 720 l 771 669 l 823 669 l 823 617 l 874 617 l 874 0 l 257 0 z "},"б":{"ha":926,"x_min":103,"x_max":874,"o":"m 617 154 l 617 205 l 669 205 l 669 257 l 720 257 l 720 514 l 669 514 l 669 566 l 617 566 l 617 617 l 257 617 l 257 257 l 309 257 l 309 205 l 360 205 l 360 154 l 617 154 m 257 0 l 257 51 l 205 51 l 205 103 l 154 103 l 154 154 l 103 154 l 103 1080 l 154 1080 l 154 1132 l 205 1132 l 205 1183 l 257 1183 l 257 1234 l 720 1234 l 720 1080 l 360 1080 l 360 1029 l 309 1029 l 309 977 l 257 977 l 257 771 l 720 771 l 720 720 l 771 720 l 771 669 l 823 669 l 823 617 l 874 617 l 874 154 l 823 154 l 823 103 l 771 103 l 771 51 l 720 51 l 720 0 l 257 0 z "},"в":{"ha":926,"x_min":103,"x_max":874,"o":"m 617 154 l 617 205 l 669 205 l 669 257 l 617 257 l 617 309 l 257 309 l 257 154 l 617 154 m 617 463 l 617 514 l 669 514 l 669 566 l 617 566 l 617 617 l 257 617 l 257 463 l 617 463 m 103 0 l 103 771 l 720 771 l 720 720 l 771 720 l 771 669 l 823 669 l 823 617 l 874 617 l 874 463 l 823 463 l 823 411 l 771 411 l 771 360 l 823 360 l 823 309 l 874 309 l 874 154 l 823 154 l 823 103 l 771 103 l 771 51 l 720 51 l 720 0 l 103 0 z "},"г":{"ha":771,"x_min":103,"x_max":720,"o":"m 103 0 l 103 771 l 720 771 l 720 617 l 257 617 l 257 0 l 103 0 z "},"д":{"ha":1080,"x_min":103,"x_max":1029,"o":"m 720 154 l 720 617 l 566 617 l 566 463 l 514 463 l 514 411 l 463 411 l 463 360 l 411 360 l 411 154 l 720 154 m 103 -154 l 103 154 l 257 154 l 257 463 l 309 463 l 309 514 l 360 514 l 360 566 l 411 566 l 411 771 l 874 771 l 874 154 l 1029 154 l 1029 -154 l 874 -154 l 874 0 l 257 0 l 257 -154 l 103 -154 z "},"е":{"ha":926,"x_min":103,"x_max":874,"o":"m 720 463 l 720 514 l 669 514 l 669 566 l 617 566 l 617 617 l 360 617 l 360 566 l 309 566 l 309 514 l 257 514 l 257 463 l 720 463 m 257 0 l 257 51 l 205 51 l 205 103 l 154 103 l 154 154 l 103 154 l 103 617 l 154 617 l 154 669 l 205 669 l 205 720 l 257 720 l 257 771 l 720 771 l 720 720 l 771 720 l 771 669 l 823 669 l 823 617 l 874 617 l 874 309 l 257 309 l 257 257 l 309 257 l 309 205 l 360 205 l 360 154 l 874 154 l 874 0 l 257 0 z "},"ж":{"ha":926,"x_min":103,"x_max":874,"o":"m 103 0 l 103 309 l 154 309 l 154 360 l 205 360 l 205 411 l 154 411 l 154 463 l 103 463 l 103 771 l 257 771 l 257 566 l 309 566 l 309 514 l 360 514 l 360 463 l 411 463 l 411 771 l 566 771 l 566 463 l 617 463 l 617 514 l 669 514 l 669 566 l 720 566 l 720 771 l 874 771 l 874 463 l 823 463 l 823 411 l 771 411 l 771 360 l 823 360 l 823 309 l 874 309 l 874 0 l 720 0 l 720 205 l 669 205 l 669 257 l 617 257 l 617 309 l 566 309 l 566 0 l 411 0 l 411 309 l 360 309 l 360 257 l 309 257 l 309 205 l 257 205 l 257 0 l 103 0 z "},"з":{"ha":926,"x_min":103,"x_max":874,"o":"m 257 0 l 257 51 l 205 51 l 205 103 l 154 103 l 154 154 l 103 154 l 103 309 l 257 309 l 257 257 l 309 257 l 309 205 l 360 205 l 360 154 l 617 154 l 617 205 l 669 205 l 669 257 l 617 257 l 617 309 l 411 309 l 411 463 l 617 463 l 617 514 l 669 514 l 669 566 l 617 566 l 617 617 l 360 617 l 360 566 l 309 566 l 309 514 l 257 514 l 257 463 l 103 463 l 103 617 l 154 617 l 154 669 l 205 669 l 205 720 l 257 720 l 257 771 l 720 771 l 720 720 l 771 720 l 771 669 l 823 669 l 823 617 l 874 617 l 874 463 l 823 463 l 823 411 l 771 411 l 771 360 l 823 360 l 823 309 l 874 309 l 874 154 l 823 154 l 823 103 l 771 103 l 771 51 l 720 51 l 720 0 l 257 0 z "},"и":{"ha":926,"x_min":103,"x_max":874,"o":"m 103 0 l 103 771 l 257 771 l 257 309 l 309 309 l 309 360 l 360 360 l 360 411 l 411 411 l 411 463 l 463 463 l 463 514 l 514 514 l 514 566 l 566 566 l 566 617 l 617 617 l 617 669 l 669 669 l 669 720 l 720 720 l 720 771 l 874 771 l 874 0 l 720 0 l 720 463 l 669 463 l 669 411 l 617 411 l 617 360 l 566 360 l 566 309 l 514 309 l 514 257 l 463 257 l 463 205 l 411 205 l 411 154 l 360 154 l 360 103 l 309 103 l 309 51 l 257 51 l 257 0 l 103 0 z "},"й":{"ha":926,"x_min":103,"x_max":874,"o":"m 103 0 l 103 771 l 257 771 l 257 309 l 309 309 l 309 360 l 360 360 l 360 411 l 411 411 l 411 463 l 463 463 l 463 514 l 514 514 l 514 566 l 566 566 l 566 617 l 617 617 l 617 669 l 669 669 l 669 720 l 720 720 l 720 771 l 874 771 l 874 0 l 720 0 l 720 463 l 669 463 l 669 411 l 617 411 l 617 360 l 566 360 l 566 309 l 514 309 l 514 257 l 463 257 l 463 205 l 411 205 l 411 154 l 360 154 l 360 103 l 309 103 l 309 51 l 257 51 l 257 0 l 103 0 m 360 926 l 360 977 l 309 977 l 309 1029 l 257 1029 l 257 1080 l 205 1080 l 205 1234 l 360 1234 l 360 1183 l 411 1183 l 411 1132 l 463 1132 l 463 1080 l 566 1080 l 566 1132 l 617 1132 l 617 1183 l 669 1183 l 669 1234 l 823 1234 l 823 1080 l 771 1080 l 771 1029 l 720 1029 l 720 977 l 669 977 l 669 926 l 360 926 z "},"к":{"ha":771,"x_min":103,"x_max":720,"o":"m 103 0 l 103 771 l 257 771 l 257 463 l 309 463 l 309 514 l 360 514 l 360 566 l 411 566 l 411 617 l 463 617 l 463 669 l 514 669 l 514 720 l 566 720 l 566 771 l 720 771 l 720 617 l 669 617 l 669 566 l 617 566 l 617 514 l 566 514 l 566 463 l 514 463 l 514 411 l 463 411 l 463 360 l 514 360 l 514 309 l 566 309 l 566 257 l 617 257 l 617 205 l 669 205 l 669 154 l 720 154 l 720 0 l 566 0 l 566 51 l 514 51 l 514 103 l 463 103 l 463 154 l 411 154 l 411 205 l 360 205 l 360 257 l 309 257 l 309 309 l 257 309 l 257 0 l 103 0 z "},"л":{"ha":926,"x_min":103,"x_max":874,"o":"m 103 0 l 103 154 l 154 154 l 154 205 l 205 205 l 205 257 l 257 257 l 257 771 l 874 771 l 874 0 l 720 0 l 720 617 l 411 617 l 411 154 l 360 154 l 360 103 l 309 103 l 309 51 l 257 51 l 257 0 l 103 0 z "},"м":{"ha":926,"x_min":103,"x_max":874,"o":"m 103 0 l 103 771 l 257 771 l 257 720 l 309 720 l 309 669 l 360 669 l 360 617 l 411 617 l 411 566 l 463 566 l 463 514 l 514 514 l 514 566 l 566 566 l 566 617 l 617 617 l 617 669 l 669 669 l 669 720 l 720 720 l 720 771 l 874 771 l 874 0 l 720 0 l 720 463 l 669 463 l 669 411 l 617 411 l 617 360 l 566 360 l 566 309 l 411 309 l 411 360 l 360 360 l 360 411 l 309 411 l 309 463 l 257 463 l 257 0 l 103 0 z "},"н":{"ha":926,"x_min":103,"x_max":874,"o":"m 103 0 l 103 771 l 257 771 l 257 463 l 720 463 l 720 771 l 874 771 l 874 0 l 720 0 l 720 309 l 257 309 l 257 0 l 103 0 z "},"о":{"ha":926,"x_min":103,"x_max":874,"o":"m 617 154 l 617 205 l 669 205 l 669 257 l 720 257 l 720 514 l 669 514 l 669 566 l 617 566 l 617 617 l 360 617 l 360 566 l 309 566 l 309 514 l 257 514 l 257 257 l 309 257 l 309 205 l 360 205 l 360 154 l 617 154 m 257 0 l 257 51 l 205 51 l 205 103 l 154 103 l 154 154 l 103 154 l 103 617 l 154 617 l 154 669 l 205 669 l 205 720 l 257 720 l 257 771 l 720 771 l 720 720 l 771 720 l 771 669 l 823 669 l 823 617 l 874 617 l 874 154 l 823 154 l 823 103 l 771 103 l 771 51 l 720 51 l 720 0 l 257 0 z "},"п":{"ha":926,"x_min":103,"x_max":874,"o":"m 103 0 l 103 771 l 874 771 l 874 0 l 720 0 l 720 617 l 257 617 l 257 0 l 103 0 z "},"р":{"ha":926,"x_min":103,"x_max":874,"o":"m 617 154 l 617 205 l 669 205 l 669 257 l 720 257 l 720 514 l 669 514 l 669 566 l 617 566 l 617 617 l 514 617 l 514 566 l 463 566 l 463 514 l 411 514 l 411 463 l 360 463 l 360 411 l 309 411 l 309 360 l 257 360 l 257 154 l 617 154 m 103 -309 l 103 771 l 257 771 l 257 617 l 309 617 l 309 669 l 360 669 l 360 720 l 411 720 l 411 771 l 720 771 l 720 720 l 771 720 l 771 669 l 823 669 l 823 617 l 874 617 l 874 154 l 823 154 l 823 103 l 771 103 l 771 51 l 720 51 l 720 0 l 257 0 l 257 -309 l 103 -309 z "},"с":{"ha":926,"x_min":103,"x_max":874,"o":"m 257 0 l 257 51 l 205 51 l 205 103 l 154 103 l 154 154 l 103 154 l 103 617 l 154 617 l 154 669 l 205 669 l 205 720 l 257 720 l 257 771 l 720 771 l 720 720 l 771 720 l 771 669 l 823 669 l 823 617 l 874 617 l 874 463 l 720 463 l 720 514 l 669 514 l 669 566 l 617 566 l 617 617 l 360 617 l 360 566 l 309 566 l 309 514 l 257 514 l 257 257 l 309 257 l 309 205 l 360 205 l 360 154 l 617 154 l 617 205 l 669 205 l 669 257 l 720 257 l 720 309 l 874 309 l 874 154 l 823 154 l 823 103 l 771 103 l 771 51 l 720 51 l 720 0 l 257 0 z "},"т":{"ha":926,"x_min":103,"x_max":874,"o":"m 411 0 l 411 617 l 103 617 l 103 771 l 874 771 l 874 617 l 566 617 l 566 0 l 411 0 z "},"у":{"ha":926,"x_min":103,"x_max":874,"o":"m 257 -309 l 257 -154 l 617 -154 l 617 -103 l 669 -103 l 669 -51 l 720 -51 l 720 154 l 257 154 l 257 205 l 205 205 l 205 257 l 154 257 l 154 309 l 103 309 l 103 771 l 257 771 l 257 411 l 309 411 l 309 360 l 360 360 l 360 309 l 720 309 l 720 771 l 874 771 l 874 -154 l 823 -154 l 823 -205 l 771 -205 l 771 -257 l 720 -257 l 720 -309 l 257 -309 z "},"ф":{"ha":1234,"x_min":103,"x_max":1183,"o":"m 566 154 l 566 617 l 360 617 l 360 566 l 309 566 l 309 514 l 257 514 l 257 257 l 309 257 l 309 205 l 360 205 l 360 154 l 566 154 m 926 154 l 926 205 l 977 205 l 977 257 l 1029 257 l 1029 514 l 977 514 l 977 566 l 926 566 l 926 617 l 720 617 l 720 154 l 926 154 m 566 -309 l 566 0 l 257 0 l 257 51 l 205 51 l 205 103 l 154 103 l 154 154 l 103 154 l 103 617 l 154 617 l 154 669 l 205 669 l 205 720 l 257 720 l 257 771 l 566 771 l 566 1080 l 720 1080 l 720 771 l 1029 771 l 1029 720 l 1080 720 l 1080 669 l 1132 669 l 1132 617 l 1183 617 l 1183 154 l 1132 154 l 1132 103 l 1080 103 l 1080 51 l 1029 51 l 1029 0 l 720 0 l 720 -309 l 566 -309 z "},"х":{"ha":926,"x_min":103,"x_max":874,"o":"m 103 0 l 103 154 l 154 154 l 154 205 l 205 205 l 205 257 l 257 257 l 257 309 l 309 309 l 309 360 l 360 360 l 360 411 l 309 411 l 309 463 l 257 463 l 257 514 l 205 514 l 205 566 l 154 566 l 154 617 l 103 617 l 103 771 l 257 771 l 257 720 l 309 720 l 309 669 l 360 669 l 360 617 l 411 617 l 411 566 l 463 566 l 463 514 l 514 514 l 514 566 l 566 566 l 566 617 l 617 617 l 617 669 l 669 669 l 669 720 l 720 720 l 720 771 l 874 771 l 874 617 l 823 617 l 823 566 l 771 566 l 771 514 l 720 514 l 720 463 l 669 463 l 669 411 l 617 411 l 617 360 l 669 360 l 669 309 l 720 309 l 720 257 l 771 257 l 771 205 l 823 205 l 823 154 l 874 154 l 874 0 l 720 0 l 720 51 l 669 51 l 669 103 l 617 103 l 617 154 l 566 154 l 566 205 l 514 205 l 514 257 l 463 257 l 463 205 l 411 205 l 411 154 l 360 154 l 360 103 l 309 103 l 309 51 l 257 51 l 257 0 l 103 0 z "},"ц":{"ha":1080,"x_min":103,"x_max":1029,"o":"m 874 -154 l 874 0 l 103 0 l 103 771 l 257 771 l 257 154 l 720 154 l 720 771 l 874 771 l 874 154 l 1029 154 l 1029 -154 l 874 -154 z "},"ч":{"ha":926,"x_min":103,"x_max":874,"o":"m 720 0 l 720 309 l 257 309 l 257 360 l 205 360 l 205 411 l 154 411 l 154 463 l 103 463 l 103 771 l 257 771 l 257 566 l 309 566 l 309 514 l 360 514 l 360 463 l 720 463 l 720 771 l 874 771 l 874 0 l 720 0 z "},"ш":{"ha":926,"x_min":103,"x_max":874,"o":"m 103 0 l 103 771 l 257 771 l 257 154 l 411 154 l 411 771 l 566 771 l 566 154 l 720 154 l 720 771 l 874 771 l 874 0 l 103 0 z "},"щ":{"ha":1080,"x_min":103,"x_max":1029,"o":"m 874 -154 l 874 0 l 103 0 l 103 771 l 257 771 l 257 154 l 411 154 l 411 771 l 566 771 l 566 154 l 720 154 l 720 771 l 874 771 l 874 154 l 1029 154 l 1029 -154 l 874 -154 z "},"ъ":{"ha":1080,"x_min":103,"x_max":1029,"o":"m 771 154 l 771 205 l 823 205 l 823 257 l 771 257 l 771 309 l 411 309 l 411 154 l 771 154 m 257 0 l 257 617 l 103 617 l 103 771 l 411 771 l 411 463 l 874 463 l 874 411 l 926 411 l 926 360 l 977 360 l 977 309 l 1029 309 l 1029 154 l 977 154 l 977 103 l 926 103 l 926 51 l 874 51 l 874 0 l 257 0 z "},"ы":{"ha":1080,"x_min":103,"x_max":1029,"o":"m 463 154 l 463 205 l 514 205 l 514 257 l 463 257 l 463 309 l 257 309 l 257 154 l 463 154 m 103 0 l 103 771 l 257 771 l 257 463 l 566 463 l 566 411 l 617 411 l 617 360 l 669 360 l 669 309 l 720 309 l 720 154 l 669 154 l 669 103 l 617 103 l 617 51 l 566 51 l 566 0 l 103 0 m 874 0 l 874 771 l 1029 771 l 1029 0 l 874 0 z "},"ь":{"ha":926,"x_min":103,"x_max":874,"o":"m 617 154 l 617 205 l 669 205 l 669 257 l 617 257 l 617 309 l 257 309 l 257 154 l 617 154 m 103 0 l 103 771 l 257 771 l 257 463 l 720 463 l 720 411 l 771 411 l 771 360 l 823 360 l 823 309 l 874 309 l 874 154 l 823 154 l 823 103 l 771 103 l 771 51 l 720 51 l 720 0 l 103 0 z "},"э":{"ha":926,"x_min":103,"x_max":874,"o":"m 257 0 l 257 51 l 205 51 l 205 103 l 154 103 l 154 154 l 103 154 l 103 309 l 257 309 l 257 257 l 309 257 l 309 205 l 360 205 l 360 154 l 617 154 l 617 205 l 669 205 l 669 257 l 720 257 l 720 309 l 411 309 l 411 463 l 720 463 l 720 514 l 669 514 l 669 566 l 617 566 l 617 617 l 360 617 l 360 566 l 309 566 l 309 514 l 257 514 l 257 463 l 103 463 l 103 617 l 154 617 l 154 669 l 205 669 l 205 720 l 257 720 l 257 771 l 720 771 l 720 720 l 771 720 l 771 669 l 823 669 l 823 617 l 874 617 l 874 154 l 823 154 l 823 103 l 771 103 l 771 51 l 720 51 l 720 0 l 257 0 z "},"ю":{"ha":1234,"x_min":103,"x_max":1183,"o":"m 926 154 l 926 205 l 977 205 l 977 257 l 1029 257 l 1029 514 l 977 514 l 977 566 l 926 566 l 926 617 l 669 617 l 669 566 l 617 566 l 617 514 l 566 514 l 566 257 l 617 257 l 617 205 l 669 205 l 669 154 l 926 154 m 103 0 l 103 771 l 257 771 l 257 463 l 411 463 l 411 617 l 463 617 l 463 669 l 514 669 l 514 720 l 566 720 l 566 771 l 1029 771 l 1029 720 l 1080 720 l 1080 669 l 1132 669 l 1132 617 l 1183 617 l 1183 154 l 1132 154 l 1132 103 l 1080 103 l 1080 51 l 1029 51 l 1029 0 l 566 0 l 566 51 l 514 51 l 514 103 l 463 103 l 463 154 l 411 154 l 411 309 l 257 309 l 257 0 l 103 0 z "},"я":{"ha":926,"x_min":103,"x_max":874,"o":"m 720 463 l 720 617 l 360 617 l 360 566 l 309 566 l 309 514 l 360 514 l 360 463 l 720 463 m 103 0 l 103 154 l 154 154 l 154 205 l 205 205 l 205 257 l 257 257 l 257 360 l 205 360 l 205 411 l 154 411 l 154 463 l 103 463 l 103 617 l 154 617 l 154 669 l 205 669 l 205 720 l 257 720 l 257 771 l 874 771 l 874 0 l 720 0 l 720 309 l 514 309 l 514 257 l 463 257 l 463 205 l 411 205 l 411 154 l 360 154 l 360 103 l 309 103 l 309 51 l 257 51 l 257 0 l 103 0 z "},"ё":{"ha":926,"x_min":103,"x_max":874,"o":"m 720 463 l 720 514 l 669 514 l 669 566 l 617 566 l 617 617 l 360 617 l 360 566 l 309 566 l 309 514 l 257 514 l 257 463 l 720 463 m 257 0 l 257 51 l 205 51 l 205 103 l 154 103 l 154 154 l 103 154 l 103 617 l 154 617 l 154 669 l 205 669 l 205 720 l 257 720 l 257 771 l 720 771 l 720 720 l 771 720 l 771 669 l 823 669 l 823 617 l 874 617 l 874 309 l 257 309 l 257 257 l 309 257 l 309 205 l 360 205 l 360 154 l 874 154 l 874 0 l 257 0 m 257 926 l 257 1080 l 411 1080 l 411 926 l 257 926 m 566 926 l 566 1080 l 720 1080 l 720 926 l 566 926 z "},"Ґ":{"ha":771,"x_min":103,"x_max":720,"o":"m 103 0 l 103 1080 l 566 1080 l 566 1234 l 720 1234 l 720 926 l 257 926 l 257 0 l 103 0 z "},"ґ":{"ha":771,"x_min":103,"x_max":720,"o":"m 103 0 l 103 771 l 566 771 l 566 926 l 720 926 l 720 617 l 257 617 l 257 0 l 103 0 z "},"‘":{"ha":463,"x_min":103,"x_max":411,"o":"m 103 617 l 103 926 l 154 926 l 154 977 l 205 977 l 205 1029 l 257 1029 l 257 1080 l 411 1080 l 411 926 l 360 926 l 360 874 l 309 874 l 309 823 l 257 823 l 257 617 l 103 617 z "},"’":{"ha":309,"x_min":-51,"x_max":257,"o":"m -51 617 l -51 771 l 0 771 l 0 823 l 51 823 l 51 874 l 103 874 l 103 1080 l 257 1080 l 257 771 l 205 771 l 205 720 l 154 720 l 154 669 l 103 669 l 103 617 l -51 617 z "},"“":{"ha":771,"x_min":103,"x_max":720,"o":"m 103 617 l 103 926 l 154 926 l 154 977 l 205 977 l 205 1029 l 257 1029 l 257 1080 l 411 1080 l 411 926 l 360 926 l 360 874 l 309 874 l 309 823 l 257 823 l 257 617 l 103 617 m 411 617 l 411 926 l 463 926 l 463 977 l 514 977 l 514 1029 l 566 1029 l 566 1080 l 720 1080 l 720 926 l 669 926 l 669 874 l 617 874 l 617 823 l 566 823 l 566 617 l 411 617 z "},"”":{"ha":617,"x_min":-51,"x_max":566,"o":"m -51 617 l -51 771 l 0 771 l 0 823 l 51 823 l 51 874 l 103 874 l 103 1080 l 257 1080 l 257 771 l 205 771 l 205 720 l 154 720 l 154 669 l 103 669 l 103 617 l -51 617 m 257 617 l 257 771 l 309 771 l 309 823 l 360 823 l 360 874 l 411 874 l 411 1080 l 566 1080 l 566 771 l 514 771 l 514 720 l 463 720 l 463 669 l 411 669 l 411 617 l 257 617 z "},"€":{"ha":1080,"x_min":103,"x_max":1029,"o":"m 411 0 l 411 51 l 360 51 l 360 103 l 309 103 l 309 154 l 257 154 l 257 309 l 154 309 l 154 360 l 103 360 l 103 463 l 257 463 l 257 617 l 154 617 l 154 669 l 103 669 l 103 771 l 257 771 l 257 926 l 309 926 l 309 977 l 360 977 l 360 1029 l 411 1029 l 411 1080 l 874 1080 l 874 1029 l 926 1029 l 926 977 l 977 977 l 977 926 l 1029 926 l 1029 771 l 874 771 l 874 823 l 823 823 l 823 874 l 771 874 l 771 926 l 514 926 l 514 874 l 463 874 l 463 823 l 411 823 l 411 771 l 669 771 l 669 720 l 720 720 l 720 617 l 411 617 l 411 463 l 669 463 l 669 411 l 720 411 l 720 309 l 411 309 l 411 257 l 463 257 l 463 205 l 514 205 l 514 154 l 771 154 l 771 205 l 823 205 l 823 257 l 874 257 l 874 309 l 1029 309 l 1029 154 l 977 154 l 977 103 l 926 103 l 926 51 l 874 51 l 874 0 l 411 0 z "},"™":{"ha":1389,"x_min":103,"x_max":1337,"o":"m 257 463 l 257 926 l 103 926 l 103 1080 l 720 1080 l 720 1029 l 771 1029 l 771 977 l 823 977 l 823 926 l 874 926 l 874 874 l 926 874 l 926 823 l 977 823 l 977 874 l 1029 874 l 1029 926 l 1080 926 l 1080 977 l 1132 977 l 1132 1029 l 1183 1029 l 1183 1080 l 1337 1080 l 1337 463 l 1183 463 l 1183 771 l 1132 771 l 1132 720 l 1080 720 l 1080 669 l 1029 669 l 1029 617 l 874 617 l 874 669 l 823 669 l 823 720 l 771 720 l 771 771 l 720 771 l 720 463 l 566 463 l 566 926 l 411 926 l 411 463 l 257 463 z "}}}
